<svg width="32" height="32" viewBox="0 0 32 32" fill="none" xmlns="http://www.w3.org/2000/svg">
<path d="M6.66683 1.33337H2.66683C2.31321 1.33337 1.97407 1.47385 1.72402 1.7239C1.47397 1.97395 1.3335 2.31309 1.3335 2.66671V29.3334C1.3335 29.687 1.47397 30.0261 1.72402 30.2762C1.97407 30.5262 2.31321 30.6667 2.66683 30.6667H6.66683V1.33337Z" fill="#C4B5FD"/>
<path d="M9.3335 30.6667H22.6668V1.33337H9.3335V30.6667ZM16.0002 25.3334C15.6465 25.3334 15.3074 25.1929 15.0574 24.9429C14.8073 24.6928 14.6668 24.3537 14.6668 24C14.6668 23.6464 14.8073 23.3073 15.0574 23.0572C15.3074 22.8072 15.6465 22.6667 16.0002 22.6667C16.3538 22.6667 16.6929 22.8072 16.943 23.0572C17.193 23.3073 17.3335 23.6464 17.3335 24C17.3335 24.3537 17.193 24.6928 16.943 24.9429C16.6929 25.1929 16.3538 25.3334 16.0002 25.3334ZM16.0002 6.66671C16.3538 6.66671 16.6929 6.80718 16.943 7.05723C17.193 7.30728 17.3335 7.64642 17.3335 8.00004C17.3335 8.35366 17.193 8.6928 16.943 8.94285C16.6929 9.1929 16.3538 9.33337 16.0002 9.33337C15.6465 9.33337 15.3074 9.1929 15.0574 8.94285C14.8073 8.6928 14.6668 8.35366 14.6668 8.00004C14.6668 7.64642 14.8073 7.30728 15.0574 7.05723C15.3074 6.80718 15.6465 6.66671 16.0002 6.66671ZM16.0002 14.6667C16.3538 14.6667 16.6929 14.8072 16.943 15.0572C17.193 15.3073 17.3335 15.6464 17.3335 16C17.3335 16.3537 17.193 16.6928 16.943 16.9429C16.6929 17.1929 16.3538 17.3334 16.0002 17.3334C15.6465 17.3334 15.3074 17.1929 15.0574 16.9429C14.8073 16.6928 14.6668 16.3537 14.6668 16C14.6668 15.6464 14.8073 15.3073 15.0574 15.0572C15.3074 14.8072 15.6465 14.6667 16.0002 14.6667Z" fill="#7C3AED"/>
<path d="M29.3335 1.33337H25.3335V30.6667H29.3335C29.6871 30.6667 30.0263 30.5262 30.2763 30.2762C30.5264 30.0261 30.6668 29.687 30.6668 29.3334V2.66671C30.6668 2.31309 30.5264 1.97395 30.2763 1.7239C30.0263 1.47385 29.6871 1.33337 29.3335 1.33337Z" fill="#1DB5BE"/>
</svg>
