<svg width="32" height="32" viewBox="0 0 32 32" fill="none" xmlns="http://www.w3.org/2000/svg">
<path d="M27.9998 32H15.9998C15.6462 32 15.3071 31.8595 15.057 31.6094C14.807 31.3594 14.6665 31.0202 14.6665 30.6666V28C14.6665 27.6463 14.807 27.3072 15.057 27.0571C15.3071 26.8071 15.6462 26.6666 15.9998 26.6666H27.9998C28.3535 26.6666 28.6926 26.8071 28.9426 27.0571C29.1927 27.3072 29.3332 27.6463 29.3332 28V30.6666C29.3332 31.0202 29.1927 31.3594 28.9426 31.6094C28.6926 31.8595 28.3535 32 27.9998 32Z" fill="#C4B5FD"/>
<path d="M27.9998 0H3.99984C3.64622 0 3.30708 0.140475 3.05703 0.390523C2.80698 0.640572 2.6665 0.979711 2.6665 1.33333V4C2.6665 4.35362 2.80698 4.69276 3.05703 4.94281C3.30708 5.19286 3.64622 5.33333 3.99984 5.33333H27.9998C28.3535 5.33333 28.6926 5.19286 28.9426 4.94281C29.1927 4.69276 29.3332 4.35362 29.3332 4V1.33333C29.3332 0.979711 29.1927 0.640572 28.9426 0.390523C28.6926 0.140475 28.3535 0 27.9998 0Z" fill="#1DB5BE"/>
<path d="M27.9998 8H3.99984C3.64622 8 3.30708 8.14047 3.05703 8.39052C2.80698 8.64057 2.6665 8.97971 2.6665 9.33333V22.6667C2.6665 23.0203 2.80698 23.3594 3.05703 23.6095C3.30708 23.8595 3.64622 24 3.99984 24H27.9998C28.3535 24 28.6926 23.8595 28.9426 23.6095C29.1927 23.3594 29.3332 23.0203 29.3332 22.6667V9.33333C29.3332 8.97971 29.1927 8.64057 28.9426 8.39052C28.6926 8.14047 28.3535 8 27.9998 8Z" fill="#7C3AED"/>
</svg>
