<svg width="32" height="32" viewBox="0 0 32 32" fill="none" xmlns="http://www.w3.org/2000/svg">
<path d="M30.6668 8.00004V2.66671C30.6668 2.31309 30.5264 1.97395 30.2763 1.7239C30.0263 1.47385 29.6871 1.33337 29.3335 1.33337H2.66683C2.31321 1.33337 1.97407 1.47385 1.72402 1.7239C1.47397 1.97395 1.3335 2.31309 1.3335 2.66671V8.00004H30.6668Z" fill="#1DB5BE"/>
<path d="M1.3335 10.6667V29.3334C1.3335 29.687 1.47397 30.0262 1.72402 30.2762C1.97407 30.5263 2.31321 30.6667 2.66683 30.6667H9.3335V10.6667H1.3335Z" fill="#C4B5FD"/>
<path d="M12 30.6667H29.3333C29.687 30.6667 30.0261 30.5263 30.2761 30.2762C30.5262 30.0262 30.6667 29.687 30.6667 29.3334V10.6667H12V30.6667Z" fill="#7C3AED"/>
</svg>
