<svg width="32" height="32" viewBox="0 0 32 32" fill="none" xmlns="http://www.w3.org/2000/svg">
<path d="M31.4665 1.60004C31.1998 1.33338 30.6665 1.33337 30.2665 1.33337L22.6665 3.60004V30.4L31.0665 28C31.5998 27.8667 31.9998 27.3334 31.9998 26.6667V2.66671C31.9998 2.26671 31.8665 1.86671 31.4665 1.60004Z" fill="#C4B5FD"/>
<path d="M20 3.6001L12 1.6001V28.4001L20 30.4001V3.6001Z" fill="#1DB5BE"/>
<path d="M9.33333 1.6001L0.933334 4.0001C0.400001 4.26676 0 4.8001 0 5.33343V29.3334C0 29.7334 0.133333 30.1334 0.533333 30.4001C0.799999 30.5334 1.06667 30.6668 1.33333 30.6668H1.73333L9.33333 28.4001V1.6001Z" fill="#7C3AED"/>
</svg>
