<svg width="32" height="24" viewBox="0 0 32 24" fill="none" xmlns="http://www.w3.org/2000/svg">
<g clip-path="url(#clip0_9_4635)">
<path d="M15.2078 0.131948L0.781159 5.18695C0.683598 5.2205 0.60095 5.27438 0.543053 5.34216C0.485156 5.40994 0.45445 5.48877 0.45459 5.56927C0.454731 5.64977 0.485711 5.72854 0.543844 5.79621C0.601977 5.86387 0.684814 5.91759 0.782492 5.95095L15.3225 10.969C15.7518 11.117 16.2478 11.117 16.6772 10.969L31.2172 5.95095C31.3149 5.91768 31.3978 5.86405 31.4561 5.79644C31.5143 5.72883 31.5454 5.65009 31.5457 5.56959C31.546 5.48909 31.5154 5.41023 31.4577 5.34239C31.3999 5.27455 31.3173 5.2206 31.2198 5.18695L16.7918 0.131948C16.5439 0.0450423 16.2735 0 15.9998 0C15.7261 0 15.4558 0.0450423 15.2078 0.131948Z" fill="#7C3AED"/>
<path opacity="0.64" d="M31.22 11.6759L28.24 10.6319C28.0266 10.5571 27.794 10.5181 27.5584 10.5176C27.3229 10.5171 27.09 10.5551 26.876 10.6289L16.6773 14.1489C16.4649 14.2222 16.2338 14.2601 16 14.2601C15.7662 14.2601 15.5351 14.2222 15.3227 14.1489L5.12267 10.6289C4.90885 10.5552 4.67621 10.5173 4.4409 10.5178C4.20559 10.5183 3.97324 10.5573 3.76001 10.6319L0.780006 11.6759C0.682503 11.7095 0.599949 11.7635 0.54217 11.8313C0.48439 11.8992 0.453823 11.978 0.454103 12.0585C0.454384 12.139 0.485502 12.2178 0.543754 12.2854C0.602006 12.353 0.684937 12.4066 0.782674 12.4399L15.3227 17.4569C15.535 17.5306 15.7661 17.5687 16 17.5687C16.2339 17.5687 16.465 17.5306 16.6773 17.4569L31.2173 12.4399C31.3151 12.4066 31.398 12.353 31.4563 12.2854C31.5145 12.2178 31.5456 12.139 31.5459 12.0585C31.5462 11.978 31.5156 11.8992 31.4578 11.8313C31.4001 11.7635 31.3175 11.7095 31.22 11.6759Z" fill="#C4B5FD"/>
<path d="M31.22 18.1079L28.24 17.0639C28.0266 16.9892 27.794 16.9501 27.5585 16.9496C27.3229 16.9491 27.09 16.9871 26.876 17.0609L16.6774 20.5799C16.4649 20.6532 16.2338 20.6911 16 20.6911C15.7662 20.6911 15.5351 20.6532 15.3227 20.5799L5.12269 17.0599C4.90887 16.9862 4.67623 16.9483 4.44091 16.9489C4.2056 16.9494 3.97326 16.9883 3.76002 17.0629L0.780019 18.1079C0.682891 18.1417 0.600708 18.1957 0.543205 18.2634C0.485701 18.3311 0.455288 18.4098 0.455568 18.4901C0.455849 18.5704 0.486813 18.6489 0.544789 18.7164C0.602765 18.7839 0.685324 18.8375 0.782686 18.8709L15.3227 23.8889C15.752 24.0369 16.248 24.0369 16.6774 23.8889L31.2174 18.8709C31.3147 18.8375 31.3973 18.7839 31.4553 18.7164C31.5132 18.6489 31.5442 18.5704 31.5445 18.4901C31.5448 18.4098 31.5143 18.3311 31.4568 18.2634C31.3993 18.1957 31.3172 18.1417 31.22 18.1079Z" fill="#1DB5BE"/>
</g>
<defs>
<clipPath id="clip0_9_4635">
<rect width="32" height="24" fill="white"/>
</clipPath>
</defs>
</svg>
