<svg width="32" height="32" viewBox="0 0 32 32" fill="none" xmlns="http://www.w3.org/2000/svg">
<path d="M12.0002 13.3334H2.66683C2.31321 13.3334 1.97407 13.1929 1.72402 12.9429C1.47397 12.6928 1.3335 12.3537 1.3335 12V2.66671C1.3335 2.31309 1.47397 1.97395 1.72402 1.7239C1.97407 1.47385 2.31321 1.33337 2.66683 1.33337H12.0002C12.3538 1.33337 12.6929 1.47385 12.943 1.7239C13.193 1.97395 13.3335 2.31309 13.3335 2.66671V12C13.3335 12.3537 13.193 12.6928 12.943 12.9429C12.6929 13.1929 12.3538 13.3334 12.0002 13.3334Z" fill="#7C3AED"/>
<path d="M12.0002 30.6667H2.66683C2.31321 30.6667 1.97407 30.5263 1.72402 30.2762C1.47397 30.0262 1.3335 29.687 1.3335 29.3334V20.0001C1.3335 19.6465 1.47397 19.3073 1.72402 19.0573C1.97407 18.8072 2.31321 18.6667 2.66683 18.6667H12.0002C12.3538 18.6667 12.6929 18.8072 12.943 19.0573C13.193 19.3073 13.3335 19.6465 13.3335 20.0001V29.3334C13.3335 29.687 13.193 30.0262 12.943 30.2762C12.6929 30.5263 12.3538 30.6667 12.0002 30.6667Z" fill="#7C3AED"/>
<path d="M17.3335 2.66675H30.6668V5.33341H17.3335V2.66675Z" fill="#1DB5BE"/>
<path d="M30.6668 20H17.3335V22.6667H30.6668V20Z" fill="#1DB5BE"/>
<path d="M30.6668 26.6667H17.3335V29.3334H30.6668V26.6667Z" fill="#C4B5FD"/>
<path d="M30.6668 9.33337H17.3335V12H30.6668V9.33337Z" fill="#C4B5FD"/>
</svg>
