<svg width="172" height="26" viewBox="0 0 172 26" fill="none" xmlns="http://www.w3.org/2000/svg">
<path fill-rule="evenodd" clip-rule="evenodd" d="M41.5394 8.33765C39.7221 8.33765 38.1643 8.98519 36.8662 10.0213V8.59667H32.4526V25.3034H36.996V14.6836C37.6451 13.777 39.2028 12.6115 41.15 12.6115C41.7991 12.6115 42.4481 12.741 42.9674 12.8705V8.59667C42.4481 8.46716 41.9289 8.33765 41.5394 8.33765Z" fill="#293E40"/>
<path fill-rule="evenodd" clip-rule="evenodd" d="M2.46663 20.1231C3.63493 21.1592 5.45229 21.8067 7.01003 21.8067C8.17833 21.8067 9.21682 21.1592 9.21682 20.3821C9.21682 17.792 1.03871 18.6985 1.03871 13.3886C1.03871 10.1509 4.15418 8.20825 7.39946 8.20825C9.60625 8.20825 11.9429 8.98531 13.1112 9.89187L11.0342 13.1296C10.1255 12.6116 9.08701 11.964 7.78889 11.964C6.49078 11.964 5.5821 12.4821 5.5821 13.3886C5.5821 15.5903 13.7602 14.6837 13.7602 20.5117C13.7602 23.7494 10.6447 25.692 7.13984 25.692C4.80323 25.692 2.33682 24.915 0.389648 23.4904L2.46663 20.1231Z" fill="#293E40"/>
<path fill-rule="evenodd" clip-rule="evenodd" d="M30.5058 16.7559C30.5058 12.0935 27.2605 8.20825 22.5873 8.20825C17.6545 8.20825 14.4092 12.3526 14.4092 16.8854C14.4092 22.1953 18.1737 25.5625 23.1065 25.5625C25.7028 25.5625 28.299 24.5264 29.9865 22.5838L27.3903 19.9936C26.6114 20.9002 25.0537 21.9363 23.2363 21.9363C20.8997 21.9363 18.9526 20.2526 18.693 17.9215H30.2462C30.5058 17.6624 30.5058 17.2739 30.5058 16.7559ZM19.0824 14.8132C19.342 13.2591 20.8997 11.8345 22.7171 11.8345C24.5345 11.8345 25.8326 13.2591 26.0922 14.8132H19.0824Z" fill="#293E40"/>
<path fill-rule="evenodd" clip-rule="evenodd" d="M53.4822 18.8279L58.0256 8.59668H62.6988L55.04 25.3034H51.9245L44.2656 8.59668H48.809L53.4822 18.8279Z" fill="#293E40"/>
<path fill-rule="evenodd" clip-rule="evenodd" d="M66.4633 0.696533C68.1508 0.696533 69.4489 1.99163 69.4489 3.54574C69.4489 5.22936 68.1508 6.39495 66.4633 6.39495C64.7757 6.39495 63.6074 5.09985 63.6074 3.54574C63.6074 1.86212 64.7757 0.696533 66.4633 0.696533Z" fill="#293E40"/>
<path d="M68.8002 8.59668H64.2568V25.3034H68.8002V8.59668Z" fill="#293E40"/>
<path fill-rule="evenodd" clip-rule="evenodd" d="M87.2331 21.8067C85.2859 24.3969 82.8195 25.5625 79.704 25.5625C74.5116 25.5625 70.7471 21.6772 70.7471 16.8854C70.7471 11.964 74.6414 8.20825 79.704 8.20825C82.6897 8.20825 85.1561 9.63286 86.7139 11.5755L83.7282 14.2952C82.8195 13.1296 81.5214 12.3526 79.9637 12.3526C77.3674 12.3526 75.4203 14.4247 75.4203 16.8854C75.4203 19.4756 77.2376 21.4182 79.9637 21.4182C81.781 21.4182 83.2089 20.3821 83.9878 19.2166L87.2331 21.8067Z" fill="#293E40"/>
<path fill-rule="evenodd" clip-rule="evenodd" d="M103.46 22.5838C101.772 24.5264 99.1759 25.5625 96.5797 25.5625C91.6469 25.5625 87.8823 22.1953 87.8823 16.8854C87.8823 12.223 90.9978 8.20825 96.0604 8.20825C100.604 8.20825 103.979 12.0935 103.979 16.7559C103.979 17.2739 103.979 17.6624 103.849 18.051H92.1661C92.4257 20.3821 94.3729 22.0658 96.7095 22.0658C98.5269 22.0658 100.085 21.0297 100.863 20.1231L103.46 22.5838ZM99.3057 14.8132C99.1759 13.3886 97.8778 11.8345 95.9306 11.8345C94.1133 11.8345 92.5555 13.2591 92.2959 14.8132H99.3057Z" fill="#293E40"/>
<path fill-rule="evenodd" clip-rule="evenodd" d="M105.667 25.3034V8.59667H109.95V10.0213C111.248 8.98519 112.806 8.33765 114.623 8.33765C116.96 8.33765 119.037 9.37372 120.465 11.0573C121.503 12.3524 122.282 14.0361 122.282 16.8853V25.4329H117.739V16.4967C117.739 14.8131 117.35 13.9066 116.7 13.3885C116.051 12.741 115.273 12.3524 114.104 12.3524C112.287 12.3524 110.729 13.518 109.95 14.4246V25.3034C110.08 25.3034 105.667 25.3034 105.667 25.3034Z" fill="#293E40"/>
<path fill-rule="evenodd" clip-rule="evenodd" d="M133.835 8.20825C128.383 8.20825 124.1 12.4821 124.1 17.9215C124.1 20.7707 125.268 23.3609 127.085 25.174C127.734 25.8215 128.903 25.8215 129.682 25.3035C130.72 24.3969 132.278 23.8789 133.835 23.8789C135.523 23.8789 136.821 24.3969 137.989 25.3035C138.768 25.951 139.807 25.8215 140.586 25.0445C142.403 23.2313 143.571 20.7707 143.571 17.9215C143.441 12.6116 139.158 8.20825 133.835 8.20825ZM133.706 22.9723C130.72 22.9723 128.773 20.7707 128.773 18.051C128.773 15.3313 130.72 13.1296 133.706 13.1296C136.691 13.1296 138.638 15.3313 138.638 18.051C138.638 20.7707 136.691 22.9723 133.706 22.9723Z" fill="#81B5A1"/>
<path fill-rule="evenodd" clip-rule="evenodd" d="M152.398 25.3034H149.023L142.403 8.59668H146.816L150.451 18.1804L154.086 8.59668H157.85L161.355 18.1804L164.99 8.59668H169.533L162.913 25.3034H159.538L155.903 15.8492L152.398 25.3034Z" fill="#293E40"/>
<path d="M169.534 23.3608H169.144V24.0083H168.885V22.0657H169.664C170.053 22.0657 170.313 22.3247 170.313 22.7132C170.313 22.9722 170.053 23.2313 169.923 23.3608L170.443 24.1378H170.053L169.534 23.3608ZM169.144 23.1017H169.664C169.923 23.1017 169.923 22.9722 169.923 22.8427C169.923 22.5837 169.793 22.5837 169.664 22.5837H169.144V23.1017Z" fill="#293E40"/>
<path d="M169.534 21.4181C170.572 21.4181 171.351 22.1951 171.351 23.2312C171.351 24.2673 170.572 25.0443 169.534 25.0443C168.495 25.0443 167.716 24.2673 167.716 23.2312C167.716 22.1951 168.625 21.4181 169.534 21.4181ZM169.534 21.0295C168.365 21.0295 167.457 22.0656 167.457 23.1017C167.457 24.2673 168.495 25.1738 169.534 25.1738C170.702 25.1738 171.611 24.1378 171.611 23.1017C171.611 22.0656 170.572 21.0295 169.534 21.0295Z" fill="#293E40"/>
</svg>
