<svg width="260" height="32" viewBox="0 0 260 32" fill="none" xmlns="http://www.w3.org/2000/svg">
<g clip-path="url(#clip0_9_4310)">
<path d="M9.45652 14.5958C9.36179 14.4728 9.23669 14.3762 9.09331 14.3152C8.94992 14.2542 8.79311 14.231 8.63801 14.2477C8.48292 14.2644 8.3348 14.3205 8.20796 14.4106C8.08112 14.5007 7.97986 14.6218 7.91397 14.762L0.0976349 30.2635C0.0264291 30.4048 -0.00719046 30.5618 -3.18782e-05 30.7196C0.00712671 30.8774 0.0548259 31.0307 0.138537 31.1651C0.222248 31.2995 0.339192 31.4104 0.478266 31.4873C0.61734 31.5642 0.773928 31.6046 0.933162 31.6046H11.817C11.9913 31.6086 12.1631 31.5624 12.3114 31.4714C12.4597 31.3805 12.5782 31.2488 12.6525 31.0923C15.0003 26.2801 13.5775 18.9631 9.45652 14.5958Z" fill="url(#paint0_linear_9_4310)"/>
<path d="M15.1894 0.496314C13.2418 3.46885 12.1068 6.8926 11.8958 10.4316C11.6848 13.9705 12.4051 17.5031 13.9859 20.6826L19.2332 31.0922C19.3107 31.2462 19.43 31.3756 19.5776 31.4661C19.7251 31.5566 19.8952 31.6045 20.0687 31.6045H30.9506C31.1098 31.6045 31.2664 31.5641 31.4055 31.4872C31.5445 31.4103 31.6615 31.2994 31.7452 31.165C31.8289 31.0307 31.8766 30.8773 31.8838 30.7195C31.8909 30.5617 31.8573 30.4047 31.7861 30.2635C31.7861 30.2635 17.1463 1.21701 16.7784 0.490498C16.7056 0.342615 16.5923 0.218066 16.4515 0.131137C16.3106 0.044209 16.1479 -0.00157778 15.982 -0.000970601C15.8162 -0.000363419 15.6538 0.0466131 15.5136 0.13457C15.3734 0.222527 15.261 0.347903 15.1894 0.496314Z" fill="#2684FF"/>
<path d="M142.828 12.9255C142.828 16.764 144.623 19.8116 151.645 21.157C155.835 22.0294 156.712 22.7002 156.712 24.0854C156.712 25.4308 155.833 26.3017 152.882 26.3017C149.316 26.2381 145.821 25.3 142.708 23.5711V29.8233C144.823 30.8522 147.616 31.9999 152.802 31.9999C160.143 31.9999 163.056 28.7527 163.056 23.9269L142.828 12.9255ZM163.056 23.9269C163.056 19.3759 160.622 17.2385 153.76 15.7748C149.97 14.9436 149.052 14.1129 149.052 12.9255C149.052 11.423 150.409 10.7886 152.922 10.7886C155.954 10.7886 158.947 11.6988 161.779 12.9652V6.98928C159.063 5.76306 156.105 5.15467 153.121 5.20862C146.339 5.20862 142.828 8.13697 142.828 12.9255" fill="#0052CC"/>
<path d="M237.139 5.60425V31.6046H242.724V11.7779L245.079 17.0409L252.978 31.6046H260V5.60425H254.415V22.3838L252.3 17.5159L245.956 5.60425H237.139Z" fill="#0052CC"/>
<path d="M201.614 5.60425H195.51V31.6046H201.614V5.60425Z" fill="#0052CC"/>
<path d="M188.466 23.9269C188.466 19.3759 186.033 17.2385 179.171 15.7748C175.38 14.9436 174.463 14.1129 174.463 12.9255C174.463 11.423 175.819 10.7886 178.333 10.7886C181.365 10.7886 184.357 11.6988 187.19 12.9652V6.98928C184.474 5.76306 181.516 5.15467 178.532 5.20862C171.75 5.20862 168.239 8.13697 168.239 12.9255C168.239 16.764 170.034 19.8116 177.056 21.157C181.245 22.0294 182.123 22.7002 182.123 24.0854C182.123 25.4308 181.243 26.3017 178.293 26.3017C174.726 26.2381 171.231 25.3 168.119 23.5711V29.8233C170.234 30.8522 173.026 31.9999 178.213 31.9999C185.554 31.9999 188.466 28.7527 188.466 23.9269Z" fill="#0052CC"/>
<path d="M95.4087 5.60425V31.6046H107.955L109.931 25.9849H101.553V5.60425H95.4087Z" fill="#0052CC"/>
<path d="M70.6206 5.60425V11.2235H77.403V31.6046H83.5469V11.2235H90.8081V5.60425H70.6206Z" fill="#0052CC"/>
<path d="M61.7119 5.60425H53.66L44.5195 31.6046H51.4999L52.7957 27.2256C55.987 28.1551 59.3805 28.1551 62.5718 27.2256L63.8676 31.6046H70.8494L61.7119 5.60425ZM57.6857 22.537C56.5486 22.5369 55.4174 22.3755 54.3265 22.0576L57.6857 10.7112L61.0449 22.0615C59.9537 22.3781 58.8225 22.5382 57.6857 22.537Z" fill="#0052CC"/>
<path d="M129.585 5.60425H121.534L112.394 31.6046H119.375L120.671 27.2256C123.862 28.1551 127.256 28.1551 130.447 27.2256L131.743 31.6046H138.725L129.585 5.60425ZM125.56 22.537C124.423 22.5369 123.291 22.3755 122.2 22.0576L125.56 10.7112L128.919 22.0615C127.828 22.3781 126.697 22.5382 125.56 22.537Z" fill="#0052CC"/>
<path d="M223.61 5.60425H215.559L206.418 31.6046H213.4L214.696 27.2256C217.887 28.1551 221.281 28.1551 224.472 27.2256L225.768 31.6046H232.75L223.61 5.60425ZM219.582 22.537C218.445 22.5369 217.314 22.3755 216.223 22.0576L219.582 10.7112L222.941 22.0615C221.85 22.3781 220.719 22.5382 219.582 22.537Z" fill="#0052CC"/>
</g>
<defs>
<linearGradient id="paint0_linear_9_4310" x1="13.7402" y1="16.9881" x2="5.59139" y2="31.2174" gradientUnits="userSpaceOnUse">
<stop stop-color="#0052CC"/>
<stop offset="0.923" stop-color="#2684FF"/>
</linearGradient>
<clipPath id="clip0_9_4310">
<rect width="260" height="32" fill="white"/>
</clipPath>
</defs>
</svg>
