<svg width="103" height="32" viewBox="0 0 103 32" fill="none" xmlns="http://www.w3.org/2000/svg">
<g clip-path="url(#clip0_9_4165)">
<path d="M29.5261 22.6792C29.3645 22.2892 29.2131 21.8792 29.0515 21.5292L28.3042 19.8592L28.2739 19.8292C26.0524 15.0292 23.6793 10.1492 21.1649 5.34921L21.0639 5.14921C20.8115 4.67921 20.559 4.15921 20.2965 3.67921C19.9734 3.10921 19.6603 2.49921 19.1453 1.91921C18.6433 1.31234 18.0115 0.8234 17.2956 0.487667C16.5796 0.151934 15.7973 -0.0222168 15.0051 -0.0222168C14.2129 -0.0222168 13.4306 0.151934 12.7147 0.487667C11.9987 0.8234 11.3669 1.31234 10.8649 1.91921C10.3903 2.49921 10.0369 3.10921 9.71374 3.67921C9.46129 4.19921 9.20884 4.70921 8.94629 5.17921L8.84531 5.37921C6.37129 10.1792 3.95786 15.0592 1.73629 19.8592L1.6757 19.9192C1.45355 20.4392 1.191 20.9792 0.938547 21.5592C0.776979 21.9092 0.61541 22.2892 0.453841 22.7092C0.017639 23.809 -0.121654 25.0024 0.0496898 26.1717C0.221034 27.341 0.697101 28.446 1.43097 29.3776C2.16484 30.3093 3.13119 31.0355 4.23477 31.4847C5.33836 31.9338 6.54109 32.0905 7.72443 31.9392C8.85891 31.7913 9.95132 31.4171 10.9356 30.8392C12.2484 30.1092 13.5106 29.0492 14.9243 27.5192C16.3381 29.0492 17.6306 30.1092 18.9131 30.8492C20.1463 31.5661 21.5429 31.9617 22.9725 31.9992C24.6279 32.006 26.2299 31.4195 27.4827 30.3479C28.7356 29.2764 29.5546 27.7921 29.7886 26.1692C30.0591 25.003 29.9676 23.7831 29.5261 22.6692V22.6792ZM15.0253 24.3392C13.2884 22.1392 12.1575 20.1192 11.7737 18.3892C11.6148 17.7481 11.5805 17.083 11.6728 16.4292C11.7434 15.9192 11.9353 15.4692 12.1979 15.0892C12.8037 14.2192 13.864 13.6792 15.0253 13.6792C15.5768 13.6625 16.1238 13.7817 16.6173 14.0261C17.1108 14.2704 17.5353 14.6323 17.8528 15.0792C18.1153 15.4792 18.3072 15.9192 18.3678 16.4292C18.4687 17.0092 18.4284 17.6792 18.2668 18.3892C17.8831 20.0892 16.7521 22.1292 15.0253 24.3392ZM27.8902 25.8192C27.7755 26.6432 27.4447 27.423 26.9309 28.0809C26.4171 28.7389 25.7382 29.252 24.9618 29.5692C24.1943 29.8892 23.3461 29.9792 22.5181 29.8892C21.7102 29.7892 20.9024 29.5292 20.0743 29.0492C18.6995 28.2077 17.4632 27.1622 16.4087 25.9492C18.5293 23.3492 19.8118 20.9792 20.2965 18.8692C20.5287 17.8692 20.559 16.9692 20.4581 16.1392C20.332 15.3525 20.0357 14.602 19.5896 13.9392C19.0803 13.2205 18.4004 12.6367 17.6098 12.2391C16.8192 11.8415 15.9421 11.6424 15.0556 11.6592C13.1875 11.6592 11.5213 12.5192 10.5115 13.9292C10.0569 14.5904 9.76313 15.3468 9.65316 16.1392C9.52188 16.9792 9.55217 17.9092 9.81472 18.8692C10.2994 20.9792 11.6122 23.3792 13.7025 25.9692C12.6659 27.2054 11.4267 28.2601 10.0369 29.0892C9.19874 29.5692 8.401 29.8192 7.59315 29.9192C6.33684 30.0786 5.06779 29.7404 4.06183 28.9783C3.05588 28.2162 2.39433 27.0917 2.221 25.8492C2.12002 25.0492 2.1907 24.2492 2.51384 23.3492C2.61482 23.0292 2.76629 22.7092 2.92786 22.3292C3.15002 21.8092 3.41257 21.2692 3.66502 20.7292L3.70541 20.6592C5.88659 15.8892 8.26972 11.0192 10.7437 6.24921L10.8447 6.04921C11.0972 5.56921 11.3496 5.05921 11.6122 4.57921C11.8747 4.06921 12.1575 3.57921 12.521 3.17921C12.8357 2.80723 13.2289 2.50808 13.6729 2.30283C14.1169 2.09757 14.6009 1.9912 15.0909 1.9912C15.581 1.9912 16.065 2.09757 16.509 2.30283C16.953 2.50808 17.3462 2.80723 17.6609 3.17921C18.0143 3.57921 18.3072 4.06921 18.5697 4.57921C18.8222 5.05921 19.0746 5.57921 19.3372 6.04921L19.4382 6.24921C21.9021 11.0192 24.2852 15.8892 26.5068 20.6592L26.5371 20.6892C26.7996 21.2092 27.0218 21.7892 27.2742 22.2892C27.4358 22.6792 27.5974 22.9892 27.6984 23.3192C27.8902 24.2192 27.9912 25.0192 27.8902 25.8192ZM41.9467 24.1192C41.1858 24.1302 40.4321 23.9715 39.7416 23.6547C39.0511 23.3379 38.4415 22.8712 37.958 22.2892C36.8715 21.0492 36.2948 19.4503 36.3423 17.8092C36.3256 16.1324 36.9209 14.5061 38.0185 13.2292C38.5263 12.6398 39.1583 12.1678 39.8701 11.8465C40.582 11.5251 41.3563 11.3622 42.1385 11.3692C42.8746 11.3493 43.6037 11.515 44.2573 11.8509C44.9109 12.1868 45.4675 12.6817 45.8748 13.2892L45.9758 11.7192H48.9244V23.7992H45.9657L45.8647 22.0392C45.4448 22.6879 44.8644 23.2195 44.1787 23.5835C43.493 23.9476 42.7246 24.132 41.9467 24.1192ZM42.7141 21.2392C43.2998 21.2392 43.8148 21.0792 44.2995 20.7892C44.7438 20.4692 45.1074 20.0492 45.3901 19.5392C45.6426 19.0292 45.7738 18.4192 45.7738 17.7392C45.8132 17.1486 45.6971 16.558 45.4369 16.0251C45.1767 15.4923 44.7813 15.0354 44.2894 14.6992C43.8168 14.4076 43.271 14.253 42.7141 14.253C42.1572 14.253 41.6115 14.4076 41.1388 14.6992C40.6945 15.0192 40.331 15.4392 40.0483 15.9492C39.7812 16.5117 39.6498 17.1279 39.6645 17.7492C39.6252 18.3398 39.7412 18.9304 40.0014 19.4633C40.2616 19.9962 40.657 20.453 41.1489 20.7892C41.6235 21.0792 42.1385 21.2392 42.7141 21.2392ZM53.9734 8.45921C53.9734 8.80921 53.9129 9.12921 53.7513 9.38921C53.5897 9.63921 53.3676 9.86921 53.0747 10.0292C52.7819 10.1892 52.4688 10.2492 52.1457 10.2492C51.8226 10.2492 51.4994 10.1892 51.2066 10.0292C50.9296 9.87652 50.6967 9.65621 50.53 9.38921C50.3736 9.10434 50.2969 8.78327 50.3079 8.45921C50.3079 8.09921 50.3785 7.77921 50.53 7.52921C50.6916 7.22921 50.9238 7.04921 51.2066 6.88921C51.4994 6.72921 51.8125 6.65921 52.1457 6.65921C52.4671 6.65188 52.785 6.72727 53.0682 6.87801C53.3514 7.02875 53.5902 7.24968 53.7614 7.51921C53.9083 7.81076 53.9811 8.13345 53.9734 8.45921ZM50.5401 23.7592V11.6992H53.7513V23.7792H50.53L50.5401 23.7592ZM62.3346 14.8592V14.8992C62.1832 14.8292 61.9812 14.7992 61.8297 14.7692C61.6278 14.7292 61.4662 14.7292 61.2743 14.7292C60.3756 14.7292 59.699 14.9892 59.2547 15.5292C58.77 16.0792 58.5479 16.8492 58.5479 17.8392V23.7692H55.3266V11.6892H58.2853L58.3863 13.5192C58.7094 12.8792 59.0932 12.3992 59.6384 12.0392C60.1808 11.6894 60.8194 11.5147 61.4662 11.5392C61.6984 11.5392 61.9206 11.5592 62.1125 11.5992C62.2134 11.6292 62.274 11.6292 62.3346 11.6592V14.8592ZM63.6272 23.7592V6.73921H66.8384V13.2392C67.2928 12.6592 67.8078 12.2092 68.454 11.8592C69.4772 11.3624 70.6395 11.2215 71.7534 11.4592C72.8673 11.6969 73.8679 12.2993 74.5937 13.1692C75.6825 14.4118 76.2593 16.0147 76.2093 17.6592C76.226 19.336 75.6307 20.9624 74.5331 22.2392C74.0253 22.8286 73.3933 23.3006 72.6815 23.6219C71.9696 23.9433 71.1953 24.1062 70.4131 24.0992C69.677 24.1192 68.9479 23.9534 68.2943 23.6175C67.6407 23.2817 67.0841 22.7867 66.6768 22.1792L66.5758 23.7492L63.6272 23.7792V23.7592ZM69.8375 21.2392C70.4131 21.2392 70.9281 21.0792 71.4128 20.7892C71.8571 20.4692 72.2206 20.0492 72.5034 19.5392C72.7659 19.0292 72.8871 18.4192 72.8871 17.7392C72.8871 17.0692 72.7659 16.4592 72.5034 15.9492C72.2382 15.4574 71.8656 15.0304 71.4128 14.6992C70.9401 14.4076 70.3944 14.253 69.8375 14.253C69.2806 14.253 68.7348 14.4076 68.2622 14.6992C67.8078 15.0192 67.4543 15.4392 67.1615 15.9492C66.8945 16.5117 66.7631 17.1279 66.7778 17.7492C66.7384 18.3398 66.8545 18.9304 67.1147 19.4633C67.3749 19.9962 67.7703 20.453 68.2622 20.7892C68.7368 21.0792 69.2518 21.2392 69.8375 21.2392ZM77.4211 23.7692V11.6892H80.3798L80.4808 13.2592C80.8526 12.6574 81.38 12.1649 82.0085 11.8326C82.637 11.5003 83.3437 11.3403 84.0555 11.3692C84.8695 11.3553 85.6696 11.5793 86.3557 12.0133C87.0418 12.4473 87.5835 13.072 87.913 13.8092C88.2664 14.5692 88.4583 15.5092 88.4583 16.5592V23.7992H85.237V16.9792C85.237 16.1392 85.0451 15.4792 84.6614 14.9892C84.2777 14.5092 83.7526 14.2492 83.0861 14.2492C82.6014 14.2492 82.1773 14.3492 81.8036 14.5692C81.4502 14.7992 81.1574 15.0892 80.9352 15.4992C80.7106 15.9137 80.5992 16.379 80.6121 16.8492V23.7692H77.4211ZM90.0638 23.7692V6.72921H93.2851V13.2292C93.7214 12.646 94.289 12.1715 94.9429 11.8434C95.5967 11.5153 96.3187 11.3427 97.0517 11.3392C97.8126 11.3282 98.5663 11.487 99.2568 11.8038C99.9473 12.1206 100.557 12.5872 101.04 13.1692C102.122 14.4117 102.694 16.0098 102.646 17.6492C102.664 19.3262 102.068 20.9528 100.97 22.2292C100.462 22.8186 99.83 23.2906 99.1181 23.6119C98.4063 23.9333 97.632 24.0962 96.8497 24.0892C96.1136 24.1092 95.3845 23.9434 94.7309 23.6075C94.0773 23.2717 93.5207 22.7767 93.1134 22.1692L93.0226 23.7392L90.0638 23.7692ZM96.3044 21.2392C96.8901 21.2392 97.4051 21.0792 97.8797 20.7892C98.3341 20.4692 98.6876 20.0492 98.9804 19.5392C99.2329 19.0292 99.3641 18.4192 99.3641 17.7392C99.4035 17.1486 99.2874 16.558 99.0272 16.0251C98.767 15.4923 98.3716 15.0354 97.8797 14.6992C97.4071 14.4076 96.8613 14.253 96.3044 14.253C95.7475 14.253 95.2018 14.4076 94.7291 14.6992C94.2848 15.0192 93.9213 15.4392 93.6385 15.9492C93.3567 16.5066 93.2245 17.1265 93.2548 17.7492C93.2155 18.3398 93.3316 18.9304 93.5917 19.4633C93.8519 19.9962 94.2473 20.453 94.7392 20.7892C95.2138 21.0792 95.6985 21.2392 96.3044 21.2392Z" fill="#FF385C"/>
</g>
<defs>
<clipPath id="clip0_9_4165">
<rect width="103" height="32" fill="white"/>
</clipPath>
</defs>
</svg>
