<svg width="112" height="32" viewBox="0 0 112 32" fill="none" xmlns="http://www.w3.org/2000/svg">
<g clip-path="url(#clip0_9_4295)">
<path d="M12.129 5.297V14.3233H3.90462V5.297H0V26.8437H3.90462V18.1105H12.129V26.8437H16.0336V5.297H12.129Z" fill="#33475B"/>
<path d="M28.53 19.8787C28.53 20.7422 28.1896 21.5704 27.5839 22.181C26.9781 22.7916 26.1564 23.1346 25.2997 23.1346C24.443 23.1346 23.6214 22.7916 23.0156 22.181C22.4098 21.5704 22.0695 20.7422 22.0695 19.8787V10.6499H18.3657V19.8787C18.3657 21.7305 19.0956 23.5065 20.3947 24.816C21.6938 26.1254 23.4558 26.8611 25.293 26.8611C27.1303 26.8611 28.8922 26.1254 30.1914 24.816C31.4905 23.5065 32.2203 21.7305 32.2203 19.8787V10.6499H28.53V19.8787Z" fill="#33475B"/>
<path d="M55.9716 11.6006C55.9716 9.70893 57.2132 9.10923 58.5734 9.10923C59.6696 9.10923 61.1178 9.94997 62.0648 10.97L64.4906 8.08916C63.2796 6.43855 60.8232 5.297 58.8126 5.297C54.7951 5.297 51.8891 7.6688 51.8891 11.6006C51.8891 18.8953 60.7352 16.5814 60.7352 20.6636C60.7352 21.9227 59.5223 23.0354 58.1334 23.0354C55.9429 23.0354 55.2332 21.9555 54.2269 20.814L51.5352 23.6351C53.2569 25.7658 55.3805 26.8476 57.9249 26.8476C61.7415 26.8476 64.812 24.4469 64.812 20.6944C64.812 12.5956 55.9659 15.112 55.9659 11.6006" fill="#33475B"/>
<path d="M110.697 23.4017C108.508 23.4017 107.887 22.4472 107.887 20.9855V14.5161H111.288V11.238H107.887V6.91284L104.131 8.61167V21.7896C104.131 25.1603 106.439 26.8591 109.603 26.8591C110.099 26.8682 110.595 26.8282 111.084 26.7395L112 23.34C111.587 23.3689 111.112 23.3978 110.697 23.3978" fill="#33475B"/>
<path d="M42.6277 10.7579C40.793 10.7579 39.5132 11.2939 38.2754 12.5184V5.42615H34.5659V18.5713C34.5659 23.4923 38.0956 26.863 42.0614 26.863C46.4615 26.863 50.3317 23.4325 50.3317 18.8123C50.3317 14.25 46.7695 10.7598 42.6277 10.7598V10.7579ZM42.6047 23.1009C41.7723 23.1009 40.9586 22.8521 40.2664 22.3859C39.5743 21.9198 39.0349 21.2572 38.7163 20.4821C38.3977 19.7069 38.3144 18.8539 38.4768 18.031C38.6392 17.2081 39.04 16.4522 39.6287 15.8589C40.2173 15.2656 40.9672 14.8616 41.7836 14.6979C42.6001 14.5342 43.4463 14.6182 44.2154 14.9393C44.9844 15.2604 45.6417 15.8041 46.1042 16.5018C46.5667 17.1994 46.8135 18.0196 46.8135 18.8586C46.8135 19.9837 46.3701 21.0628 45.5808 21.8583C44.7915 22.6539 43.721 23.1009 42.6047 23.1009Z" fill="#33475B"/>
<path d="M82.9054 18.6158C82.9054 13.9879 79.0429 10.5652 74.6351 10.5652C70.6693 10.5652 67.1396 13.9358 67.1396 18.8568V32.0097H70.8491V24.9078C72.085 26.1303 73.3667 26.6683 75.1995 26.6683C79.3413 26.6683 82.9035 23.1801 82.9035 18.6158H82.9054ZM79.393 18.5695C79.393 19.4086 79.1461 20.2287 78.6837 20.9264C78.2212 21.624 77.5639 22.1678 76.7948 22.4888C76.0258 22.8099 75.1795 22.8939 74.3631 22.7302C73.5467 22.5666 72.7967 22.1625 72.2081 21.5692C71.6195 20.9759 71.2187 20.2201 71.0563 19.3971C70.8939 18.5742 70.9772 17.7213 71.2958 16.9461C71.6143 16.1709 72.1538 15.5084 72.8459 15.0422C73.538 14.5761 74.3518 14.3273 75.1842 14.3273C76.3004 14.3273 77.3709 14.7742 78.1603 15.5698C78.9496 16.3654 79.393 17.4444 79.393 18.5695Z" fill="#33475B"/>
<path d="M94.8893 10.3838V6.62751C95.3818 6.39556 95.7988 6.02739 96.0918 5.56585C96.3847 5.1043 96.5416 4.56838 96.5441 4.02046V3.93369C96.5441 3.16657 96.2418 2.43086 95.7036 1.88843C95.1655 1.34599 94.4356 1.04125 93.6745 1.04125H93.5884C92.8274 1.04125 92.0974 1.34599 91.5593 1.88843C91.0211 2.43086 90.7188 3.16657 90.7188 3.93369V4.02046C90.7213 4.56838 90.8782 5.1043 91.1712 5.56585C91.4641 6.02739 91.8811 6.39556 92.3736 6.62751V10.3838C90.9581 10.6021 89.625 11.1935 88.5092 12.0981L78.2894 4.07445C78.3618 3.80987 78.4003 3.53706 78.4042 3.26264C78.4054 2.61803 78.2168 1.98756 77.8624 1.45097C77.508 0.914387 77.0037 0.495796 76.4132 0.248144C75.8228 0.000492028 75.1727 -0.0650939 74.5453 0.0596818C73.9179 0.184458 73.3412 0.493989 72.8883 0.949125C72.4354 1.40426 72.1267 1.98455 72.001 2.6166C71.8754 3.24866 71.9385 3.90407 72.1825 4.49994C72.4264 5.09582 72.8402 5.60538 73.3715 5.96418C73.9028 6.32299 74.5277 6.51491 75.1673 6.51567C75.7265 6.51315 76.2753 6.36289 76.759 6.07988L86.8237 13.9724C85.9194 15.3491 85.4475 16.9686 85.4697 18.6196C85.4919 20.2706 86.0071 21.8766 86.9481 23.2282L83.8871 26.3134C83.6396 26.2338 83.3817 26.1915 83.1219 26.1881C82.5969 26.1885 82.0838 26.3457 81.6474 26.64C81.211 26.9342 80.871 27.3522 80.6702 27.8412C80.4695 28.3302 80.4171 28.8682 80.5196 29.3872C80.6221 29.9062 80.8749 30.3829 81.2462 30.7571C81.6174 31.1313 82.0904 31.3862 82.6053 31.4895C83.1202 31.5929 83.654 31.54 84.1391 31.3377C84.6242 31.1353 85.039 30.7926 85.3309 30.3527C85.6228 29.9129 85.7788 29.3957 85.7792 28.8665C85.7759 28.6046 85.734 28.3447 85.6548 28.0952L88.6833 25.0427C89.6708 25.8086 90.8191 26.3366 92.0403 26.5862C93.2615 26.8358 94.5231 26.8003 95.7286 26.4826C96.9341 26.1648 98.0515 25.5732 98.9951 24.7529C99.9388 23.9327 100.684 22.9057 101.173 21.7505C101.662 20.5954 101.882 19.3427 101.817 18.0885C101.751 16.8343 101.402 15.6118 100.795 14.5147C100.189 13.4175 99.3414 12.4748 98.3177 11.7588C97.294 11.0428 96.1212 10.5725 94.8893 10.3838ZM93.6343 22.7365C92.8059 22.7357 91.9964 22.4874 91.3079 22.023C90.6195 21.5586 90.0831 20.8989 89.7665 20.1273C89.4499 19.3557 89.3674 18.5069 89.5293 17.688C89.6913 16.8691 90.0904 16.117 90.6763 15.5267C91.2622 14.9365 92.0086 14.5345 92.821 14.3716C93.6335 14.2088 94.4757 14.2924 95.241 14.6118C96.0064 14.9313 96.6607 15.4722 97.1211 16.1664C97.5815 16.8605 97.8275 17.6766 97.8278 18.5116C97.8278 19.6316 97.3864 20.7057 96.6007 21.4977C95.815 22.2896 94.7493 22.7345 93.6382 22.7345" fill="#FF7A59"/>
</g>
<defs>
<clipPath id="clip0_9_4295">
<rect width="112" height="32" fill="white"/>
</clipPath>
</defs>
</svg>
