<svg width="122" height="26" viewBox="0 0 122 26" fill="none" xmlns="http://www.w3.org/2000/svg">
<g clip-path="url(#clip0_9_4267)">
<path d="M43.0636 14.9752L42.3365 17.031H42.2759C42.1547 16.5674 41.9325 15.862 41.5689 15.0155L37.6706 5.24029H33.853V20.8201H36.3779V11.2062C36.3779 10.6015 36.3779 9.91626 36.3577 9.06975C36.3375 8.6465 36.2971 8.32402 36.2769 8.08215H36.3375C36.4587 8.68681 36.6 9.13022 36.701 9.41239L41.3871 20.7798H43.1646L47.8103 9.31161C47.9113 9.0496 48.0123 8.52557 48.1133 8.08215H48.1739C48.1133 9.23099 48.0729 10.2589 48.0527 10.8837V20.7597H50.7391V5.19998H47.063L43.0636 14.9752ZM53.2841 9.59378H55.91V20.7597H53.2841V9.59378ZM54.6173 4.8775C54.1729 4.8775 53.8093 5.03874 53.5063 5.32091C53.2034 5.60309 53.0418 5.96588 53.0418 6.40929C53.0418 6.83254 53.2034 7.19533 53.5063 7.4775C53.8093 7.75967 54.1729 7.90076 54.6173 7.90076C55.0616 7.90076 55.4454 7.73952 55.7282 7.4775C56.0312 7.19533 56.1928 6.83254 56.1928 6.40929C56.1928 5.98603 56.0312 5.62324 55.7282 5.32091C55.4656 5.03874 55.0818 4.8775 54.6173 4.8775ZM65.2216 9.49301C64.7368 9.39223 64.2318 9.33177 63.7471 9.33177C62.5553 9.33177 61.4646 9.59378 60.5557 10.1178C59.6467 10.6418 58.9196 11.3674 58.455 12.2744C57.9702 13.2015 57.7279 14.2698 57.7279 15.4992C57.7279 16.5674 57.9702 17.5147 58.4348 18.3814C58.8994 19.2279 59.5457 19.9132 60.4143 20.3767C61.2424 20.8403 62.212 21.0822 63.3027 21.0822C64.555 21.0822 65.6255 20.8201 66.4739 20.3364L66.4941 20.3163V17.8977L66.3931 17.9783C66.0093 18.2605 65.5649 18.5023 65.1206 18.6434C64.656 18.8046 64.2318 18.8853 63.8683 18.8853C62.8179 18.8853 61.9898 18.5829 61.404 17.9178C60.7981 17.2729 60.4951 16.386 60.4951 15.2775C60.4951 14.1287 60.7981 13.2217 61.4242 12.5566C62.0504 11.8915 62.8785 11.5488 63.8885 11.5488C64.7368 11.5488 65.6053 11.831 66.3931 12.3953L66.4941 12.476V9.91626L66.4739 9.89611C66.1305 9.75502 65.7467 9.59378 65.2216 9.49301ZM73.8868 9.41239C73.2404 9.41239 72.6345 9.61394 72.1093 10.0372C71.6649 10.4 71.362 10.924 71.0994 11.5488H71.0792V9.59378H68.4534V20.7597H71.0792V15.0558C71.0792 14.0884 71.2812 13.2822 71.7255 12.6977C72.1699 12.093 72.7355 11.7907 73.4222 11.7907C73.6646 11.7907 73.907 11.8511 74.21 11.8915C74.4928 11.9721 74.6947 12.0527 74.8361 12.1535L74.9371 12.2341V9.61394L74.8765 9.59378C74.6947 9.47285 74.3312 9.41239 73.8868 9.41239ZM81.0371 9.35192C79.1991 9.35192 77.7245 9.89611 76.6944 10.9643C75.6441 12.0325 75.1391 13.5039 75.1391 15.3581C75.1391 17.0915 75.6643 18.5023 76.6742 19.5302C77.6841 20.538 79.0577 21.062 80.7745 21.062C82.5722 21.062 84.0063 20.5178 85.0365 19.4294C86.0868 18.3411 86.5918 16.8899 86.5918 15.0961C86.5918 13.3225 86.107 11.9116 85.1173 10.8837C84.1679 9.8558 82.7742 9.35192 81.0371 9.35192ZM83.1378 17.938C82.653 18.5628 81.8855 18.8651 80.9361 18.8651C79.9868 18.8651 79.2192 18.5628 78.6739 17.8977C78.1285 17.2729 77.8659 16.3659 77.8659 15.217C77.8659 14.0279 78.1487 13.1209 78.6739 12.476C79.2192 11.831 79.9666 11.5085 80.9159 11.5085C81.8451 11.5085 82.5722 11.8108 83.0974 12.4356C83.6226 13.0604 83.9053 13.9674 83.9053 15.1566C83.8649 16.3659 83.6428 17.3132 83.1378 17.938ZM92.4494 14.2294C91.6212 13.8868 91.0961 13.6248 90.8537 13.4031C90.6517 13.2015 90.5507 12.9194 90.5507 12.5566C90.5507 12.2542 90.6719 11.9519 90.9749 11.7504C91.2779 11.5488 91.6212 11.448 92.1262 11.448C92.5706 11.448 93.0351 11.5287 93.4795 11.6496C93.9239 11.7705 94.3279 11.9519 94.651 12.1938L94.752 12.2744V9.81549L94.6914 9.79533C94.3884 9.6744 93.9845 9.55347 93.4997 9.4527C93.0149 9.37208 92.5706 9.33177 92.207 9.33177C90.9547 9.33177 89.9245 9.63409 89.1166 10.2992C88.3087 10.924 87.9249 11.7705 87.9249 12.7581C87.9249 13.2822 88.0057 13.7457 88.1875 14.1287C88.3692 14.5116 88.6318 14.8744 88.9954 15.1767C89.359 15.4589 89.8841 15.7814 90.6113 16.0837C91.2173 16.3457 91.6818 16.5473 91.9646 16.7085C92.2474 16.8698 92.4292 17.0511 92.5706 17.1922C92.6716 17.3535 92.7322 17.555 92.7322 17.817C92.7322 18.5628 92.1666 18.9256 91.0153 18.9256C90.5709 18.9256 90.1063 18.8449 89.561 18.6636C89.0156 18.4822 88.5106 18.2201 88.0865 17.9178L87.9855 17.8372V20.3969L88.0461 20.417C88.4298 20.5984 88.8944 20.7194 89.46 20.8605C90.0255 20.9612 90.5305 21.0418 90.9749 21.0418C92.3282 21.0418 93.4391 20.7395 94.2269 20.0744C95.0348 19.4294 95.459 18.6031 95.459 17.5349C95.459 16.7891 95.257 16.124 94.8126 15.6201C94.2269 15.1364 93.4997 14.6325 92.4494 14.2294ZM102.387 9.35192C100.549 9.35192 99.0745 9.89611 98.0444 10.9643C97.0143 12.0325 96.4891 13.5039 96.4891 15.3581C96.4891 17.0915 97.0143 18.5023 98.0242 19.5302C99.0341 20.538 100.408 21.062 102.125 21.062C103.922 21.062 105.356 20.5178 106.386 19.4294C107.437 18.3411 107.942 16.8899 107.942 15.0961C107.942 13.3225 107.457 11.9116 106.467 10.8837C105.518 9.8558 104.124 9.35192 102.387 9.35192ZM104.468 17.938C103.983 18.5628 103.215 18.8651 102.266 18.8651C101.296 18.8651 100.549 18.5628 100.004 17.8977C99.4583 17.2729 99.1957 16.3659 99.1957 15.217C99.1957 14.0279 99.4785 13.1209 100.004 12.476C100.549 11.831 101.296 11.5085 102.246 11.5085C103.155 11.5085 103.902 11.8108 104.427 12.4356C104.952 13.0604 105.235 13.9674 105.235 15.1566C105.235 16.3659 104.973 17.3132 104.468 17.938ZM121.98 11.7504V9.59378H119.334V6.28836L119.253 6.30851L116.748 7.05425L116.688 7.0744V9.59378H112.729V8.18293C112.729 7.53797 112.89 7.03409 113.173 6.71161C113.456 6.38913 113.88 6.22789 114.405 6.22789C114.769 6.22789 115.153 6.30851 115.577 6.48991L115.678 6.55037V4.27285L115.617 4.2527C115.254 4.13177 114.769 4.05115 114.143 4.05115C113.355 4.05115 112.668 4.23254 112.042 4.53487C111.416 4.8775 110.951 5.34107 110.608 5.96588C110.265 6.57053 110.083 7.2558 110.083 8.04185V9.59378H108.245V11.7302H110.083V20.7597H112.729V11.7504H116.688V17.4946C116.688 19.8527 117.799 21.0418 120.021 21.0418C120.384 21.0418 120.768 20.9814 121.131 20.9209C121.515 20.8403 121.798 20.7395 121.96 20.6589L121.98 20.6387V18.4822L121.879 18.5628C121.717 18.6636 121.576 18.7442 121.333 18.8046C121.131 18.8651 120.95 18.8853 120.808 18.8853C120.283 18.8853 119.92 18.7643 119.657 18.462C119.415 18.1798 119.293 17.7163 119.293 17.031V11.7504H121.98Z" fill="#737373"/>
<path d="M0 0H12.3818V12.355H0V0Z" fill="#F25022"/>
<path d="M13.6743 0H26.0561V12.355H13.6743V0Z" fill="#7FBA00"/>
<path d="M0 13.645H12.3818V26.0001H0V13.645Z" fill="#00A4EF"/>
<path d="M13.6743 13.645H26.0561V26.0001H13.6743V13.645Z" fill="#FFB900"/>
</g>
<defs>
<clipPath id="clip0_9_4267">
<rect width="122" height="26" fill="white"/>
</clipPath>
</defs>
</svg>
