<svg width="84" height="32" viewBox="0 0 84 32" fill="none" xmlns="http://www.w3.org/2000/svg">
<path d="M69.0639 30.6399C77.0423 30.6399 83.534 24.0431 83.534 15.9359C83.534 7.82393 77.0423 1.23193 69.0639 1.23193C61.0839 1.23193 54.5937 7.82393 54.5937 15.9359C54.5937 24.0431 61.0839 30.6399 69.0639 30.6399ZM69.0639 10.6927C71.9072 10.6927 74.2227 13.0447 74.2227 15.9343C74.2227 18.8239 71.9056 21.1727 69.0623 21.1727C66.2174 21.1727 63.905 18.8239 63.905 15.9327C63.905 13.0399 66.2189 10.6895 69.0623 10.6895L69.0639 10.6927ZM14.4702 30.6399C22.4486 30.6399 28.9404 24.0431 28.9404 15.9359C28.9404 7.82393 22.4486 1.23193 14.4702 1.23193C6.49336 1.23193 0 7.82393 0 15.9359C0 24.0431 6.49336 30.6399 14.4702 30.6399ZM14.4702 10.6927C17.3151 10.6927 19.6291 13.0447 19.6291 15.9343C19.6291 18.8239 17.3151 21.1727 14.4702 21.1727C11.6269 21.1727 9.31449 18.8239 9.31449 15.9327C9.31449 13.0399 11.6285 10.6895 14.4702 10.6895V10.6927ZM41.7591 10.3615L37.3166 1.42393H26.9149L36.6303 20.9759V30.1807H46.8894V20.9759L56.6049 1.42393H46.1984L41.7607 10.3615H41.7591Z" fill="#EE2E24"/>
</svg>
