<svg width="98" height="34" viewBox="0 0 98 34" fill="none" xmlns="http://www.w3.org/2000/svg">
<path fill-rule="evenodd" clip-rule="evenodd" d="M86.3759 15.8409L80.1387 26.6752L74.8172 26.6965L86.3759 6.30391L97.8914 26.6965H92.4856L86.3759 15.8398V15.8409ZM69.581 21.98H75.5411L72.7739 26.6965H65.0056L65.0266 20.9537V6.42928H69.6031L69.5821 21.98H69.581ZM53.235 6.43034C58.918 6.45159 63.5156 10.9778 63.4945 16.573C63.4734 22.1479 58.8758 26.6752 53.1918 26.6752C47.53 26.654 42.9324 22.1277 42.9324 16.5315C42.9535 10.9566 47.551 6.43034 53.235 6.43034ZM53.214 21.9598C56.2572 21.9598 58.7041 19.549 58.7041 16.573C58.7262 13.598 56.2572 11.1659 53.235 11.1659C50.2118 11.1447 47.7428 13.5767 47.7428 16.5528C47.7217 19.5278 50.1907 21.9598 53.2129 21.9598H53.214ZM34.4612 14.9633C34.398 14.1239 34.184 13.0136 33.8648 11.9458C33.2078 9.74016 32.0656 7.71248 30.5233 6.01384C29.714 5.13409 28.7993 4.31597 27.4357 3.35228C26.3963 2.83505 25.3743 2.28295 24.3714 1.69691C23.7117 1.31972 22.9235 0.857531 21.8814 0.522844C20.6456 0.228746 19.3825 0.0674088 18.1131 0.0415315C16.8802 -0.000968479 15.6441 0.105282 14.4523 0.334782C13.1962 0.544094 12.153 0.878782 10.7694 1.21453C7.63975 2.57666 5.21399 4.63047 3.12753 7.35578C-4.15186 17.6036 2.42573 31.9601 14.5798 33.6569C16.5809 33.93 18.582 33.8248 20.4756 33.3849L21.8171 33.029C21.8592 33.0077 21.9235 32.9865 21.9657 32.9865L23.4989 32.4C23.5832 32.3575 23.6475 32.3362 23.7328 32.2948L24.3714 32.0015C25.5966 31.3918 26.7468 30.6394 27.7982 29.7597C26.8411 30.6365 25.8002 31.4156 24.6907 32.0855L24.7539 32.128C24.9678 32.0642 25.1586 32.0015 25.3714 31.9601C25.3714 31.9601 25.3714 32.2948 25.3293 32.2321C24.9889 32.4839 25.5211 32.2533 26.2018 31.8963C26.8836 31.5404 27.5432 31.0995 28.1386 30.5969C29.0122 29.8638 29.7783 29.0669 30.8636 27.7685C31.9701 25.8188 33.3547 24.121 33.9933 21.8366C34.2062 21.2288 34.3969 20.517 34.5255 19.7828C34.6519 19.0497 34.7383 18.2953 34.7383 17.5197C34.7173 16.744 34.6319 15.9472 34.4612 14.9633ZM18.7095 32.1907C22.4346 31.6031 25.5632 29.5291 28.1175 26.6997C28.8204 25.6722 29.3736 24.7287 30.0543 23.7023C30.9058 21.606 30.8426 19.7413 31.1187 18.4217C31.4601 16.0311 30.6508 14.1037 29.97 12.0499C28.9268 9.66034 27.5432 7.87959 25.1164 6.49622C18.9856 2.68184 10.6419 3.74966 6.66186 9.45103C6.64078 9.45103 6.5333 9.59766 6.32044 9.89091C6.59758 8.71791 7.30044 8.02622 8.00224 7.35472C10.0887 5.63666 12.5155 4.27347 15.2827 3.60409C18.4124 3.26834 21.5189 3.60409 24.3071 4.96622C28.48 7.35472 31.2472 11.1075 31.949 15.5487V19.6574C31.0765 26.3852 25.3293 31.499 18.7095 32.1907ZM34.0144 16.8907C33.8648 7.04128 24.1375 0.397469 14.6652 1.73941C11.898 2.43003 8.87476 3.81341 6.72508 5.74184C5.68186 6.43247 5.19291 7.71172 4.14968 8.7381C-0.0232182 14.8793 0.701771 22.7387 5.89472 27.5178C6.56083 28.1818 7.2721 28.7981 8.02332 29.3623C3.68181 26.7411 1.72287 22.779 1.04214 17.9606C1.04214 16.2415 1.3825 14.5436 1.74394 12.8255C4.17181 5.30091 11.8127 -0.168843 20.1363 1.21453C21.5199 1.55028 22.9035 1.90622 24.3092 2.24197C26.0543 2.93259 27.7782 3.96003 29.1618 5.32322C30.5454 6.68428 31.5886 8.40341 32.6319 10.1002C33.3337 11.4634 33.6751 13.1815 34.0154 14.5436C34.0787 15.3192 34.0787 16.1161 34.0154 16.8917L34.0144 16.8907Z" fill="black"/>
<path fill-rule="evenodd" clip-rule="evenodd" d="M25.3724 17.0382C25.3724 21.2723 21.8392 24.7095 17.4755 24.7095C13.1129 24.7095 9.57861 21.2723 9.57861 17.0382C9.57861 12.8052 13.1119 9.36804 17.4755 9.36804C21.8392 9.36804 25.3724 12.8052 25.3724 17.0393V17.0382Z" fill="white"/>
<path fill-rule="evenodd" clip-rule="evenodd" d="M25.4155 15.7389C25.309 15.1524 25.1383 14.6912 24.9687 14.0421C24.2869 12.6162 23.2869 11.5059 21.9665 10.5624C17.0286 7.27287 10.2381 10.437 9.51523 16.0544C9.23915 18.2761 10.0263 20.4139 11.431 22.0491C11.0053 21.6081 10.5374 21.1481 10.2181 20.6232L10.1759 20.6657C10.2181 20.7911 10.3888 20.875 10.431 21.0004C10.431 21.0004 10.2602 21.0004 10.3034 20.9791C10.1759 20.8336 10.2824 21.0641 10.4731 21.3776C10.6438 21.6921 10.8567 21.9864 11.1117 22.2584C11.4742 22.6568 11.8567 23.0127 12.4953 23.4951C13.4331 23.9764 14.2624 24.6054 15.3478 24.8987C15.646 24.9837 15.9864 25.0666 16.3278 25.1292C16.6893 25.193 17.0296 25.2142 17.4132 25.2142C17.7746 25.2142 18.1582 25.1717 18.6261 25.0867C19.1085 25.0294 19.5854 24.9317 20.0518 24.7946C21.0935 24.4784 22.0532 23.9342 22.8622 23.2008C23.2668 22.8247 23.8422 22.3423 24.2879 21.7133C24.6504 21.0014 24.6926 20.6444 24.8633 20.3299C25.033 20.0154 25.2458 19.6595 25.3955 19.1771C25.5174 18.6049 25.5886 18.0228 25.6083 17.4378C25.5872 16.8513 25.5451 16.285 25.4165 15.7399L25.4155 15.7389ZM20.349 11.8416C21.0729 12.2602 21.1793 12.3229 20.7958 12.0509C21.3501 12.1763 21.6904 12.4908 22.0308 12.8053C22.8611 13.7488 23.5419 14.8591 23.8822 16.1373C24.074 17.5834 23.9244 19.0294 23.3079 20.3087C22.2015 22.2573 20.4343 23.5567 18.3268 23.9127C18.0929 23.9127 17.8379 23.9127 17.6029 23.9339C18.1993 23.8287 18.5829 23.4516 19.6682 23.0531C20.8379 22.6345 22.1583 20.6859 22.7979 19.5532C24.6705 16.472 22.4565 13.6224 20.349 11.8416ZM16.3478 23.9541C13.1128 23.6194 10.6217 20.9579 10.2813 17.8766C10.5785 19.5957 11.6006 20.9154 12.9842 22.0894C13.4742 22.4039 14.1971 22.8438 14.6871 23.1583C15.5175 23.4728 16.0064 23.8086 16.8157 23.9552H16.3478V23.9541ZM25.053 18.359C24.9054 19.0092 24.7558 19.6372 24.6062 20.2874C24.2869 21.0843 23.819 21.9014 23.1804 22.5506C22.5419 23.2008 21.7326 23.7034 20.9243 24.1857C20.2858 24.5204 19.4765 24.6883 18.8168 24.8551C18.4332 24.8976 17.9864 24.7297 17.6029 24.7096C22.329 24.5831 25.5641 20.1621 24.8622 15.7814C24.5208 14.5032 23.8401 13.3918 23.0097 12.2815C22.6694 11.7991 22.0087 11.5059 21.5197 11.0235C18.5607 9.1588 14.645 9.53599 12.4099 11.9882C12.0965 12.3105 11.8047 12.6534 11.5364 13.0146C12.7292 11.2541 14.645 10.0184 16.9432 9.66137C17.7525 9.64012 18.5829 9.78781 19.3911 9.93443C22.9676 11.0235 25.6283 14.5032 25.053 18.3601V18.359Z" fill="#D7DF23"/>
</svg>
