<svg width="115" height="30" viewBox="0 0 115 30" fill="none" xmlns="http://www.w3.org/2000/svg">
<g clip-path="url(#clip0_9_4297)">
<path fill-rule="evenodd" clip-rule="evenodd" d="M25.1059 4.57446H8.45703V12.9338H16.6491C16.9409 12.9338 17.1777 13.1709 17.1777 13.4632V21.5535H25.6346V5.10479C25.6347 5.03519 25.6211 4.96625 25.5946 4.90191C25.5681 4.83758 25.5292 4.77911 25.4801 4.72985C25.431 4.68059 25.3727 4.64151 25.3085 4.61485C25.2443 4.58819 25.1754 4.57446 25.1059 4.57446Z" fill="#8E75FF"/>
<path opacity="0.405" fill-rule="evenodd" clip-rule="evenodd" d="M8.456 4.57446V12.9338H0.645668C0.593191 12.9337 0.541926 12.918 0.498379 12.8887C0.454832 12.8594 0.420969 12.8177 0.401087 12.7691C0.381206 12.7205 0.376203 12.667 0.386714 12.6155C0.397224 12.5641 0.422775 12.5169 0.460122 12.4799L8.456 4.57446ZM17.628 29.4677C17.5908 29.5043 17.5436 29.529 17.4925 29.5389C17.4413 29.5488 17.3883 29.5433 17.3402 29.5231C17.2921 29.503 17.2511 29.4691 17.2221 29.4256C17.1932 29.3822 17.1777 29.3312 17.1776 29.279V21.5535H25.6345L17.628 29.4667V29.4677Z" fill="#8E75FF"/>
<path opacity="0.405" d="M8.45605 12.9338H16.9139C17.0588 12.9338 17.1777 13.0519 17.1777 13.198V21.5535H8.98563C8.84544 21.5535 8.71098 21.4977 8.61185 21.3985C8.51271 21.2992 8.45702 21.1646 8.45702 21.0242V12.9338H8.45605Z" fill="#8E75FF"/>
<path fill-rule="evenodd" clip-rule="evenodd" d="M110.913 4.04707C111.386 4.51545 111.943 4.74868 112.587 4.74868C113.251 4.74868 113.819 4.51545 114.292 4.04707C114.764 3.57868 115 3.02707 115 2.38932C115 1.75255 114.764 1.19513 114.292 0.717066C114.072 0.48654 113.807 0.30387 113.514 0.180482C113.221 0.0570939 112.905 -0.00435811 112.587 -3.04671e-05C111.943 -3.04671e-05 111.386 0.239002 110.913 0.716099C110.441 1.19513 110.205 1.75158 110.205 2.39029C110.205 3.02707 110.441 3.57868 110.913 4.04707ZM59.6368 10.1555C59.6368 10.2038 59.5962 10.2445 59.5469 10.2445H56.2274V16.4574C56.2274 16.9751 56.3588 17.3535 56.6197 17.5926C56.8807 17.8316 57.2633 17.9651 57.7659 17.9951C58.2259 18.0232 58.7864 18.0213 59.4483 17.9903L59.5421 17.9855C59.5542 17.9848 59.5662 17.9866 59.5776 17.9908C59.5889 17.995 59.5993 18.0014 59.6081 18.0098C59.6169 18.0181 59.6239 18.0281 59.6286 18.0393C59.6334 18.0504 59.6358 18.0624 59.6358 18.0745V21.3948C59.636 21.4168 59.6279 21.4381 59.6133 21.4546C59.5986 21.471 59.5784 21.4814 59.5566 21.4838L59.4957 21.4906C56.8961 21.7645 55.0571 21.51 53.9805 20.728C52.8846 19.9316 52.3377 18.508 52.3377 16.4574V10.2445H49.8019C49.7783 10.2445 49.7557 10.2351 49.739 10.2184C49.7223 10.2017 49.713 10.1791 49.713 10.1555V6.62997C49.713 6.58158 49.7526 6.54094 49.8019 6.54094H52.3367V4.0761C52.3367 4.00449 52.3792 3.94061 52.444 3.91158L56.1027 2.31771C56.1163 2.31155 56.1312 2.3089 56.146 2.31C56.1608 2.31111 56.1752 2.31592 56.1877 2.32401C56.2002 2.33211 56.2105 2.34321 56.2176 2.35631C56.2247 2.36942 56.2284 2.38409 56.2283 2.399V6.54094H59.5469C59.5952 6.54094 59.6358 6.58061 59.6358 6.62997V10.1555H59.6368ZM66.6914 9.11029C67.0528 8.15416 67.651 7.43707 68.485 6.959C69.3078 6.4899 70.2383 6.24311 71.1851 6.24287C71.2344 6.24287 71.275 6.28255 71.275 6.33287V10.3829C71.2749 10.4031 71.2707 10.4232 71.2624 10.4417C71.2542 10.4602 71.2422 10.4768 71.2272 10.4904C71.2122 10.504 71.1945 10.5142 71.1752 10.5206C71.156 10.5269 71.1357 10.5291 71.1155 10.5271C69.9935 10.4264 68.9856 10.6713 68.0927 11.2606C67.1582 11.8771 66.6914 12.9029 66.6914 14.3371V21.3861C66.6914 21.3979 66.6891 21.4095 66.6846 21.4204C66.68 21.4313 66.6734 21.4411 66.665 21.4494C66.6567 21.4577 66.6468 21.4642 66.6359 21.4686C66.625 21.4731 66.6133 21.4753 66.6015 21.4751H62.8887C62.8651 21.4751 62.8425 21.4658 62.8258 21.4491C62.8091 21.4324 62.7998 21.4097 62.7998 21.3861V6.629C62.7998 6.58061 62.8394 6.53997 62.8887 6.53997H66.6015C66.6499 6.53997 66.6904 6.57965 66.6904 6.629V9.10836L66.6914 9.11029ZM85.0875 6.54094C85.0758 6.54081 85.0641 6.54302 85.0532 6.54744C85.0423 6.55185 85.0324 6.55839 85.024 6.56667C85.0157 6.57495 85.0091 6.58481 85.0045 6.59567C85 6.60654 84.9977 6.6182 84.9977 6.62997V8.30416C83.8322 6.84965 82.1932 6.12287 80.0817 6.12287C78.0716 6.12287 76.3466 6.88449 74.9096 8.40771C73.4716 9.93094 72.7526 11.7977 72.7526 14.008C72.7526 16.2184 73.4716 18.0851 74.9096 19.6084C76.3466 21.1316 78.0716 21.8932 80.0817 21.8932C82.1932 21.8932 83.8312 21.1664 84.9977 19.7129V21.3861C84.9977 21.4345 85.0382 21.4751 85.0875 21.4751H88.7994C88.8487 21.4751 88.8893 21.4355 88.8893 21.3861V6.629C88.8893 6.61723 88.887 6.60557 88.8824 6.59471C88.8779 6.58384 88.8713 6.57398 88.8629 6.5657C88.8546 6.55742 88.8447 6.55088 88.8338 6.54647C88.8229 6.54205 88.8112 6.53984 88.7994 6.53997H85.0875V6.54094ZM77.8203 17.0545C78.6041 17.8316 79.5985 18.2196 80.8064 18.2196C82.0125 18.2196 83.0127 17.8258 83.8071 17.039C84.6014 16.2532 84.9977 15.2429 84.9977 14.008C84.9977 12.7732 84.6014 11.7629 83.8071 10.9761C83.0127 10.1903 82.0125 9.79642 80.8055 9.79642C79.5994 9.79642 78.6041 10.1903 77.8193 10.9771C77.0366 11.7629 76.6433 12.7732 76.6433 14.008C76.6433 15.2429 77.0356 16.258 77.8203 17.0545ZM106.184 8.40771C104.746 6.88449 103.011 6.12287 100.981 6.12287C98.8692 6.12287 97.2408 6.84965 96.0947 8.3032V6.62997C96.0947 6.60636 96.0853 6.58371 96.0686 6.56701C96.052 6.55032 96.0294 6.54094 96.0058 6.54094H92.2929C92.2693 6.54094 92.2467 6.55032 92.23 6.56701C92.2134 6.58371 92.204 6.60636 92.204 6.62997V27.359C92.204 27.4084 92.2436 27.449 92.2929 27.449H96.0058C96.0541 27.449 96.0947 27.4084 96.0947 27.359V19.7129C97.2408 21.1664 98.8692 21.8932 100.981 21.8932C103.011 21.8932 104.746 21.1316 106.184 19.6084C107.621 18.0851 108.34 16.2184 108.34 14.008C108.34 11.7977 107.621 9.93094 106.184 8.40771ZM97.2708 17.0545C98.0555 17.8316 99.0499 18.2196 100.257 18.2196C101.463 18.2196 102.463 17.8258 103.258 17.039C104.052 16.2532 104.449 15.2429 104.449 14.008C104.449 12.7732 104.052 11.7629 103.258 10.9761C102.463 10.1903 101.463 9.79642 100.257 9.79642C99.0499 9.79642 98.0555 10.1903 97.2708 10.9771C96.487 11.7629 96.0947 12.7732 96.0947 14.008C96.0947 15.2429 96.487 16.258 97.2708 17.0545ZM110.746 21.4751C110.722 21.4751 110.7 21.4658 110.683 21.4491C110.667 21.4324 110.657 21.4097 110.657 21.3861V6.629C110.657 6.58061 110.697 6.53997 110.746 6.53997H114.459C114.508 6.53997 114.548 6.57965 114.548 6.629V21.3871C114.548 21.4107 114.538 21.4333 114.522 21.45C114.505 21.4667 114.483 21.4761 114.459 21.4761H110.746V21.4751ZM41.374 11.7532C40.8406 11.5045 40.5748 11.1803 40.5748 10.7826C40.5748 10.4042 40.7401 10.1051 41.0725 9.88642C41.404 9.66771 41.8215 9.55739 42.324 9.55739C43.2875 9.55739 44.0151 9.92997 44.508 10.6742C44.5244 10.6994 44.5492 10.7181 44.578 10.727C44.6068 10.7358 44.6378 10.7342 44.6655 10.7226L47.9493 9.28352C47.9607 9.27842 47.9708 9.27099 47.9791 9.26171C47.9874 9.25243 47.9937 9.24151 47.9975 9.22965C48.0014 9.21779 48.0027 9.20526 48.0013 9.19287C48 9.18048 47.9961 9.1685 47.9899 9.15771C47.9521 9.09462 47.9134 9.03203 47.8739 8.96997C47.3125 8.09416 46.5848 7.44094 45.6715 6.94449C44.6665 6.39674 43.5503 6.12287 42.324 6.12287C40.6946 6.12287 39.333 6.54578 38.2362 7.39255C37.1412 8.23836 36.5933 9.39868 36.5933 10.8716C36.5933 11.848 36.86 12.659 37.3925 13.3064C37.9071 13.9403 38.5775 14.4292 39.3378 14.7251C40.1013 15.0232 40.8657 15.2729 41.6301 15.4713C42.3936 15.6706 43.043 15.8951 43.5754 16.1438C44.1079 16.3925 44.3746 16.7158 44.3746 17.1145C44.3746 17.9709 43.6808 18.3987 42.294 18.3987C40.973 18.3987 40.0578 17.9148 39.5485 16.949C39.5281 16.9083 39.4929 16.8769 39.4502 16.8613C39.4074 16.8456 39.3603 16.8469 39.3185 16.8648L36.0444 18.3019C36.0335 18.3067 36.0236 18.3137 36.0154 18.3223C36.0073 18.331 36.0009 18.3413 35.9968 18.3525C35.9926 18.3637 35.9908 18.3756 35.9913 18.3875C35.9919 18.3994 35.9948 18.4111 35.9999 18.4219L36.0367 18.4964C37.1809 20.7609 39.2663 21.8932 42.294 21.8932C44.0229 21.8932 45.4657 21.48 46.6215 20.6545C47.7783 19.8271 48.3562 18.6474 48.3562 17.1145C48.3562 16.0984 48.0894 15.2526 47.557 14.5751C47.0549 13.9214 46.3815 13.4202 45.6116 13.1274C44.8623 12.8432 44.0969 12.6038 43.3194 12.4103C42.5549 12.2206 41.9065 12.0019 41.374 11.7522V11.7532Z" fill="#1D1B84"/>
</g>
<defs>
<clipPath id="clip0_9_4297">
<rect width="115" height="30" fill="white"/>
</clipPath>
</defs>
</svg>
