<svg width="100" height="30" viewBox="0 0 100 30" fill="none" xmlns="http://www.w3.org/2000/svg">
<g clip-path="url(#clip0_9_4265)">
<path d="M74.3643 29.1021L82.7038 19.8655L74.3643 10.6277H83.1634L87.2938 15.1148L91.2712 10.6277H99.7634L91.4634 19.8274L99.8773 29.1021H91.0421L86.949 24.5781L82.8947 29.1021H74.3643Z" fill="#FF6600"/>
<path d="M74.364 6.48643H64.9187V10.6277H74.364V16.869H64.9187V22.5977H74.364V29.1021H57.9766V0H74.364V6.48643Z" fill="#FF6600"/>
<path d="M51.0635 0V11.91H50.9874C49.457 10.176 47.5448 9.57343 45.3261 9.57343C40.7813 9.57343 37.3578 12.6189 36.1561 16.6453C34.7857 12.2087 31.2513 9.49028 26.0104 9.49028C21.7543 9.49028 18.3935 11.3734 16.6396 14.442V10.6281H7.84217V6.48729H17.4426V0H0V29.1026H7.84217V16.869H15.6587C15.4257 17.7677 15.3013 18.7299 15.3013 19.7451C15.3013 25.8159 20.0061 30.0754 26.0104 30.0754C31.0596 30.0754 34.387 27.7389 36.147 23.4789H29.4265C28.5174 24.7586 27.8278 25.1387 26.0104 25.1387C23.903 25.1387 22.0861 23.3263 22.0861 21.1779H35.7704C36.3639 25.9997 40.1744 30.1581 45.4035 30.1581C47.6591 30.1581 49.7243 29.0644 50.9874 27.2177H51.0635V29.1017H57.9765V0H51.0635ZM22.3043 16.956C22.7404 15.1076 24.1948 13.8994 26.0104 13.8994C28.0091 13.8994 29.3896 15.0703 29.7526 16.956C29.9057 16.956 22.3043 16.956 22.3043 16.956ZM46.8683 24.6711C44.32 24.6711 42.7365 22.3307 42.7365 19.887C42.7365 17.2749 44.1139 14.763 46.8683 14.763C49.7243 14.763 50.8622 17.2749 50.8622 19.887C50.8617 22.3641 49.6561 24.6711 46.8683 24.6711Z" fill="#652C8F"/>
</g>
<defs>
<clipPath id="clip0_9_4265">
<rect width="100" height="30" fill="white"/>
</clipPath>
</defs>
</svg>
