<svg width="103" height="32" viewBox="0 0 103 32" fill="none" xmlns="http://www.w3.org/2000/svg">
<g clip-path="url(#clip0_9_4240)">
<path fill-rule="evenodd" clip-rule="evenodd" d="M63.8991 25.025C57.9136 29.5733 49.238 32 41.7684 32C31.2949 32 21.8661 28.0064 14.7328 21.3642C14.1724 20.8419 14.6745 20.13 15.347 20.5368C23.0453 25.1544 32.5638 27.9324 42.3961 27.9324C49.0273 27.9324 56.322 26.518 63.0293 23.5829C64.0426 23.1391 64.89 24.267 63.8991 25.025Z" fill="#FF9900"/>
<path fill-rule="evenodd" clip-rule="evenodd" d="M66.3879 22.0899C65.6257 21.0822 61.3305 21.6138 59.4026 21.8495C58.8153 21.9235 58.7256 21.3966 59.2547 21.0175C62.6756 18.5354 68.2889 19.2518 68.9435 20.0838C69.5981 20.9205 68.7732 26.7214 65.5585 29.4902C65.0653 29.9154 64.5945 29.6889 64.8142 29.125C65.5361 27.2668 67.1546 23.1022 66.3879 22.0899Z" fill="#FF9900"/>
<path fill-rule="evenodd" clip-rule="evenodd" d="M59.5367 3.4944V1.08157C59.5367 0.716416 59.8057 0.471436 60.1286 0.471436H70.6066C70.9428 0.471436 71.2118 0.721038 71.2118 1.08157V3.14773C71.2074 3.4944 70.9249 3.94738 70.4227 4.66383L64.9932 12.6557C67.0108 12.6049 69.1405 12.9146 70.9697 13.9777C71.3822 14.2181 71.4943 14.5694 71.5257 14.916V17.4906C71.5257 17.8419 71.1491 18.2533 70.7545 18.0407C67.5309 16.2981 63.2491 16.1086 59.6847 18.0592C59.3215 18.2626 58.9404 17.8558 58.9404 17.5045V15.0593C58.9404 14.6664 58.9449 13.9962 59.326 13.3999L65.6164 4.09992H60.142C59.8057 4.09992 59.5367 3.85494 59.5367 3.4944Z" fill="black"/>
<path fill-rule="evenodd" clip-rule="evenodd" d="M21.3148 18.5491H18.127C17.8221 18.526 17.58 18.2903 17.5576 17.9898V1.12318C17.5576 0.785752 17.8311 0.517659 18.1719 0.517659H21.1444C21.4538 0.531516 21.7004 0.776505 21.7228 1.08157V3.2864H21.7811C22.5567 1.15553 24.0139 0.161743 25.9777 0.161743C27.9728 0.161743 29.2193 1.15553 30.116 3.2864C30.8871 1.15553 32.6402 0.161743 34.5188 0.161743C35.8549 0.161743 37.3165 0.730282 38.2087 2.00603C39.2175 3.42506 39.0113 5.4866 39.0113 7.2939L39.0068 17.939C39.0068 18.2764 38.7333 18.5491 38.3926 18.5491H35.2093C34.8909 18.526 34.6354 18.2625 34.6354 17.939V8.99952C34.6354 8.28769 34.6981 6.51274 34.5457 5.83789C34.3081 4.70544 33.5952 4.3865 32.6716 4.3865C31.9004 4.3865 31.0934 4.91806 30.7661 5.76856C30.4388 6.61905 30.4702 8.04271 30.4702 8.99952V17.939C30.4702 18.2764 30.1967 18.5491 29.8559 18.5491H26.6726C26.3498 18.526 26.0987 18.2625 26.0987 17.939L26.0943 8.99952C26.0943 7.11826 26.3946 4.34952 24.1305 4.34952C21.8394 4.34952 21.9291 7.04892 21.9291 8.99952V17.939C21.9291 18.2764 21.6556 18.5491 21.3148 18.5491" fill="black"/>
<path fill-rule="evenodd" clip-rule="evenodd" d="M80.2327 0.161743C84.9629 0.161743 87.523 4.34952 87.523 9.67438C87.523 14.819 84.6938 18.9004 80.2327 18.9004C75.5878 18.9004 73.0591 14.7126 73.0591 9.49411C73.0591 4.24321 75.6192 0.161743 80.2327 0.161743ZM80.2596 3.60534C77.9103 3.60534 77.7623 6.90563 77.7623 8.96255C77.7623 11.0241 77.7309 15.4245 80.2327 15.4245C82.7032 15.4245 82.8197 11.8746 82.8197 9.71135C82.8197 8.28769 82.7614 6.5867 82.3445 5.23699C81.9858 4.06294 81.2729 3.60534 80.2596 3.60534Z" fill="black"/>
<path fill-rule="evenodd" clip-rule="evenodd" d="M93.6565 18.5491H90.4822C90.1638 18.526 89.9083 18.2625 89.9083 17.939L89.9038 1.06771C89.9307 0.758016 90.1952 0.517659 90.518 0.517659H93.4727C93.7507 0.531516 93.9793 0.725661 94.0421 0.98913V3.56835H94.1004C94.9926 1.26184 96.2435 0.161743 98.4449 0.161743C99.8752 0.161743 101.27 0.693305 102.166 2.14932C103 3.49902 103 5.76856 103 7.40021V18.0176C102.964 18.3134 102.7 18.5491 102.386 18.5491H99.1892C98.8978 18.526 98.6556 18.3041 98.6243 18.0176V8.85623C98.6243 7.01195 98.8305 4.31254 96.6291 4.31254C95.8534 4.31254 95.1406 4.84873 94.7864 5.66224C94.338 6.69301 94.2797 7.71915 94.2797 8.85623V17.939C94.2752 18.2764 93.9973 18.5491 93.6565 18.5491" fill="black"/>
<path fill-rule="evenodd" clip-rule="evenodd" d="M51.184 10.4926C51.184 11.7729 51.2154 12.8407 50.5877 13.9777C50.0811 14.9022 49.274 15.4707 48.3818 15.4707C47.1578 15.4707 46.4404 14.5093 46.4404 13.0903C46.4404 10.2892 48.875 9.78073 51.184 9.78073V10.4926ZM54.3987 18.5029C54.188 18.6971 53.8831 18.7109 53.6455 18.5815C52.5873 17.6756 52.3946 17.2549 51.8162 16.3906C50.0676 18.2302 48.8257 18.7803 46.5615 18.7803C43.8759 18.7803 41.791 17.0747 41.791 13.6588C41.791 10.9918 43.1899 9.17521 45.1895 8.28773C46.9202 7.50194 49.3368 7.36328 51.184 7.14603V6.72078C51.184 5.93962 51.2423 5.01516 50.7939 4.34031C50.4084 3.73479 49.6641 3.48519 49.005 3.48519C47.79 3.48519 46.7094 4.12769 46.4449 5.4589C46.3911 5.75473 46.1804 6.04593 45.889 6.0598L42.7998 5.71775C42.5398 5.65766 42.2483 5.44041 42.3246 5.02903C43.033 1.16482 46.4225 0 49.4534 0C51.0047 0 53.0312 0.42525 54.2552 1.63628C55.8065 3.12928 55.6586 5.12148 55.6586 7.28932V12.4108C55.6586 13.95 56.2773 14.6249 56.8601 15.4569C57.0619 15.7527 57.1067 16.1086 56.8467 16.3305C56.1966 16.8898 55.0398 17.9298 54.4032 18.5122L54.3987 18.5029" fill="black"/>
<path fill-rule="evenodd" clip-rule="evenodd" d="M9.39298 10.4928C9.39298 11.7732 9.42437 12.8409 8.79667 13.978C8.29003 14.9024 7.48748 15.471 6.59078 15.471C5.36678 15.471 4.6539 14.5095 4.6539 13.0905C4.6539 10.2894 7.08845 9.78097 9.39298 9.78097V10.4928ZM12.6077 18.5032C12.3969 18.6973 12.0921 18.7112 11.8544 18.5818C10.7963 17.6758 10.608 17.2552 10.0252 16.3908C8.27658 18.2305 7.03913 18.7805 4.77047 18.7805C2.08932 18.7805 0 17.0749 0 13.6591C0 10.992 1.40334 9.17545 3.39851 8.28798C5.12915 7.50219 7.54577 7.36352 9.39298 7.14628V6.72103C9.39298 5.93986 9.45127 5.01541 9.0074 4.34056C8.61733 3.73504 7.87307 3.48544 7.21847 3.48544C6.00344 3.48544 4.91843 4.12793 4.6539 5.45914C4.60009 5.75497 4.38937 6.04617 4.10242 6.06004L1.00879 5.71799C0.748748 5.6579 0.461802 5.44065 0.533539 5.02928C1.24642 1.16506 4.63148 0.000244141 7.66234 0.000244141C9.21364 0.000244141 11.2402 0.425494 12.4642 1.63653C14.0155 3.12952 13.8675 5.12172 13.8675 7.28956V12.411C13.8675 13.9503 14.4863 14.6251 15.0691 15.4571C15.2754 15.7529 15.3202 16.1089 15.0602 16.3307C14.41 16.89 13.2533 17.93 12.6166 18.5124L12.6077 18.5032" fill="black"/>
</g>
<defs>
<clipPath id="clip0_9_4240">
<rect width="103" height="32" fill="white"/>
</clipPath>
</defs>
</svg>
