<svg width="116" height="30" viewBox="0 0 116 30" fill="none" xmlns="http://www.w3.org/2000/svg">
<g clip-path="url(#clip0_9_4296)">
<path d="M68.8174 12.8556H71.8767V23.5699H68.8174V22.177C67.7248 23.7842 66.3044 23.8913 65.4303 23.8913C62.0432 23.8913 59.8579 21.3199 59.8579 18.2127C59.8579 14.9985 62.0432 12.5342 65.2118 12.5342C66.0859 12.5342 67.7248 12.6413 68.7081 14.2485V12.8556H68.8174ZM63.1358 18.2127C63.1358 19.927 64.3377 21.2127 66.1951 21.2127C67.9433 21.2127 69.2545 19.927 69.2545 18.2127C69.2545 16.4985 68.0526 15.2128 66.1951 15.2128C64.4469 15.2128 63.1358 16.4985 63.1358 18.2127Z" fill="black"/>
<path d="M77.8857 15.4282V23.571H74.8264V15.4282H73.6245V12.8567H74.8264V9.21387H77.8857V12.8567H79.9617V15.4282H77.8857Z" fill="black"/>
<path d="M87.1728 15.427C86.408 14.7842 85.7524 14.677 85.4246 14.677C84.6598 14.677 84.2227 14.9985 84.2227 15.5342C84.2227 15.8556 84.332 16.177 85.2061 16.4985L85.9709 16.7128C86.845 17.0342 88.1562 17.3556 88.7025 18.2127C89.0303 18.6413 89.2488 19.2842 89.2488 20.0342C89.2488 20.9985 88.921 21.9627 88.0469 22.7127C87.1728 23.4627 86.0802 23.8913 84.769 23.8913C82.4745 23.8913 81.2726 22.8199 80.5078 22.0699L82.1467 20.2485C82.8023 20.8913 83.6764 21.5342 84.5505 21.5342C85.4246 21.5342 86.0802 21.1056 86.0802 20.3556C86.0802 19.7127 85.5339 19.3913 85.0968 19.2842L84.4412 19.0699C83.6764 18.7485 82.8023 18.427 82.1467 17.7842C81.6004 17.2485 81.2727 16.6056 81.2727 15.7485C81.2727 14.677 81.819 13.8199 82.3653 13.2842C83.2394 12.6413 84.332 12.5342 85.2061 12.5342C85.9709 12.5342 87.2821 12.6413 88.7025 13.7128L87.1728 15.427Z" fill="black"/>
<path d="M93.8382 14.2499C94.9308 12.7499 96.4604 12.5356 97.3345 12.5356C100.503 12.5356 102.688 14.9999 102.688 18.2141C102.688 21.4284 100.503 23.8927 97.2253 23.8927C96.5697 23.8927 94.9308 23.7856 93.7289 22.1784V23.5713H90.7788V5.57129H93.8382V14.2499ZM93.5104 18.2141C93.5104 19.9284 94.7122 21.2141 96.5697 21.2141C98.3179 21.2141 99.629 19.9284 99.629 18.2141C99.629 16.4999 98.4272 15.2141 96.5697 15.2141C94.7122 15.2141 93.5104 16.4999 93.5104 18.2141Z" fill="black"/>
<path d="M107.714 21.9636L102.47 12.8564H106.075L109.463 18.9636L112.522 12.8564H116.018L107.277 29.2493H103.781L107.714 21.9636Z" fill="black"/>
<path d="M59.0928 14.6766H56.0334H51.4444V17.6766H55.4871C54.8316 19.7123 53.3019 21.1052 50.4611 21.1052C47.2925 21.1052 44.998 18.5338 44.998 15.4266C44.998 12.3195 47.1832 9.6409 50.3518 9.6409C52.1 9.6409 53.8482 10.498 54.9408 11.8909L57.4539 10.2838C55.8149 8.03376 53.1926 6.74805 50.3518 6.74805C45.5443 6.74805 41.6108 10.6052 41.6108 15.4266C41.6108 20.248 45.3258 24.1052 50.3518 24.1052C55.3779 24.1052 59.0928 20.248 59.0928 15.4266C59.2021 15.1052 59.0928 14.8909 59.0928 14.6766Z" fill="black"/>
<path d="M27.4067 14.9986H19.7583V17.1415H25.0029C24.2381 20.3558 21.8343 23.0343 18.6657 24.1058L6.10055 11.7843C7.41169 8.03432 11.1266 5.35575 15.3878 5.35575C18.6657 5.35575 21.6158 6.96289 23.4732 9.42718L25.1122 8.03432C22.9269 5.14146 19.4305 3.21289 15.3878 3.21289C9.7062 3.21289 4.89866 7.17718 3.69678 12.4272L18.1194 26.57C23.364 25.2843 27.4067 20.57 27.4067 14.9986Z" fill="white"/>
<path d="M3.36865 15.1074C3.36865 18.1074 4.57054 21.0003 6.86504 23.2503C9.15955 25.5003 12.2189 26.6789 15.169 26.6789L3.36865 15.1074Z" fill="white"/>
<path d="M15.3875 0C6.97434 0 0.0908203 6.75 0.0908203 15C0.0908203 23.25 6.97434 30 15.3875 30C23.8007 30 30.6842 23.25 30.6842 15C30.6842 6.75 23.8007 0 15.3875 0ZM6.86507 23.3571C4.57057 21.1071 3.36869 18.1071 3.36869 15.2143L15.2783 26.7857C12.2189 26.6786 9.15958 25.6071 6.86507 23.3571ZM18.0098 26.4643L3.69647 12.4286C4.89836 7.17857 9.70589 3.21429 15.3875 3.21429C19.4302 3.21429 22.9266 5.14286 25.1119 8.03571L23.4729 9.42857C21.6155 6.96429 18.6654 5.35714 15.3875 5.35714C11.1263 5.35714 7.52065 8.03571 6.10024 11.7857L18.6654 24.1071C21.834 23.0357 24.2378 20.3571 25.0026 17.1429H19.758V15H27.4064C27.4064 20.5714 23.3637 25.2857 18.0098 26.4643Z" fill="#663399"/>
</g>
<defs>
<clipPath id="clip0_9_4296">
<rect width="116" height="30" fill="white"/>
</clipPath>
</defs>
</svg>
