<svg width="133" height="28" viewBox="0 0 133 28" fill="none" xmlns="http://www.w3.org/2000/svg">
<path d="M92.5902 0.400329H87.9352C87.6692 0.400329 87.5362 0.667191 87.5362 0.80063V10.9643H82.8812V0.80063C82.8812 0.533751 82.6152 0.400329 82.4822 0.400329H77.8272C77.5612 0.400329 77.4282 0.667191 77.4282 0.80063V26.888C77.4282 27.1549 77.6942 27.2883 77.8272 27.2883H82.4822C82.7482 27.2883 82.8812 27.0215 82.8812 26.888V16.4575H87.5362V26.888C87.5362 27.1549 87.8022 27.2883 87.9352 27.2883H92.5902C92.8562 27.2883 92.9892 27.0215 92.9892 26.888V0.80063C92.9892 0.667191 92.8562 0.400329 92.5902 0.400329ZM53.3552 0.400329H48.7002C48.4342 0.400329 48.3012 0.533751 48.3012 0.80063V19.282C48.3012 20.216 48.0352 20.8832 47.6362 21.417C47.2372 21.9508 46.7052 22.0842 46.0402 22.0842C45.3973 22.0842 44.8432 21.8173 44.4442 21.417C44.0452 20.8832 43.7792 20.216 43.7792 19.282V0.80063C43.7792 0.533751 43.5132 0.400329 43.3802 0.400329H38.7252C38.4592 0.400329 38.3262 0.533751 38.3262 0.80063V19.4154C38.3262 21.8173 38.8582 24.0858 40.3212 25.5759C41.7842 27.0437 43.7792 27.8443 46.0623 27.8443C48.4563 27.8443 50.4735 27.0437 51.8035 25.5759C53.2665 24.108 53.7985 21.973 53.7985 19.4154V0.80063C53.7763 0.667191 53.6433 0.400329 53.3552 0.400329ZM7.73617 0C5.34216 0 3.325 0.800625 1.995 2.26846C0.532 3.73629 0 5.87133 0 8.42892V19.5489C0 21.9508 0.532 24.2192 1.995 25.7093C3.458 27.1771 5.453 27.9778 7.73617 27.9778C10.1302 27.9778 12.1473 27.1771 13.4773 25.7093C14.9403 24.2415 15.4723 22.1064 15.4723 19.5489V13.4107C15.4723 13.1438 15.2063 12.8769 14.9403 12.8769H8.13517C7.86917 12.8769 7.60317 13.1438 7.60317 13.4107V17.9698C7.60317 18.2367 7.86917 18.5036 8.13517 18.5036H9.88633V19.5711C9.88633 20.5052 9.62033 21.328 9.22133 21.8395C8.82233 22.3733 8.29033 22.5067 7.62533 22.5067C6.9825 22.5067 6.42833 22.2399 6.02933 21.8395C5.63033 21.3058 5.36433 20.5052 5.36433 19.5711V8.58459C5.36433 7.65051 5.63033 6.82765 6.02933 6.31613C6.42833 5.78237 6.96033 5.64893 7.62533 5.64893C8.26817 5.64893 8.82233 5.91581 9.22133 6.31613C9.62033 6.84989 9.88633 7.65051 9.88633 8.58459V9.65211C9.88633 9.91899 10.1523 10.0524 10.2853 10.0524H14.9403C15.2063 10.0524 15.3393 9.91899 15.3393 9.65211V8.58459C15.3393 6.18268 14.8073 3.91422 13.3443 2.42415C12.1473 0.800641 9.99716 0 7.73617 0ZM67.7635 21.2835C67.3645 21.8173 66.8325 21.9507 66.0123 21.9507H63.3523V16.3018H66.0123C66.6773 16.3018 67.2093 16.5687 67.6083 16.969C68.0073 17.5028 68.2733 18.17 68.2733 18.9706C68.3177 20.0826 68.1847 20.7275 67.7635 21.2835ZM63.3523 5.89357H65.7463C66.4113 5.89357 66.9433 6.02701 67.3423 6.56076C67.7413 6.96108 67.8743 7.62828 67.8743 8.45115C67.8743 9.27403 67.7413 9.91898 67.3423 10.4527C66.9433 10.8531 66.4113 11.1199 65.8793 11.1199H63.4853V5.89357H63.3523ZM71.0885 13.5219C71.8865 12.7212 73.3495 10.8531 73.3495 8.42892C73.3495 5.60445 72.2855 3.86973 71.4653 2.93565C70.0023 1.33438 68.0073 0.533762 65.7242 0.533762H58.4313C58.1653 0.533762 58.0323 0.800624 58.0323 0.934064V27.0437C58.0323 27.3106 58.2983 27.444 58.4313 27.444H66.1675C68.5615 27.444 70.8225 26.5099 72.3077 24.6195C73.1057 23.552 74.0588 21.7951 74.0588 19.1263C73.9037 15.9237 71.9087 14.0334 71.0885 13.5219ZM28.6837 10.9643C28.2847 11.498 27.6197 11.7649 26.7995 11.7649H24.5385V5.89357H26.7995C27.5975 5.89357 28.2625 6.16044 28.6837 6.6942C29.2157 7.22795 29.3487 7.89514 29.3487 8.82922C29.3487 9.76329 29.2378 10.4305 28.6837 10.9643ZM31.6318 15.7903C32.1638 15.39 32.5628 15.1231 32.9618 14.5893C33.8928 13.5218 35.0898 11.6314 35.0898 8.69578C35.0898 5.87132 34.0258 4.02541 32.9618 2.93565C31.6318 1.33438 29.6368 0.533768 27.3537 0.400329H19.6175C19.3515 0.400329 19.2185 0.667191 19.2185 0.80063V26.888C19.2185 27.1549 19.4845 27.2883 19.6175 27.2883H24.2725C24.5385 27.2883 24.6715 27.0215 24.6715 26.888V17.2359H26.2675L29.2157 27.1326C29.2157 27.2661 29.4817 27.3995 29.6147 27.3995H34.5357C34.6687 27.3995 34.8017 27.2661 34.9347 27.2661C35.0677 27.2661 35.0677 26.9992 35.0677 26.8658L31.6318 15.7903ZM126.594 21.2835C126.195 21.8173 125.663 21.9507 124.843 21.9507H122.183V16.3018H124.843C125.508 16.3018 126.04 16.5687 126.439 16.969C126.838 17.5028 127.104 18.17 127.104 18.9706C127.259 20.0826 127.015 20.7275 126.594 21.2835ZM122.316 5.89357H124.71C125.375 5.89357 125.907 6.02701 126.306 6.56076C126.705 6.96108 126.838 7.62828 126.838 8.45115C126.838 9.27403 126.705 9.91898 126.306 10.4527C125.907 10.8531 125.375 11.1199 124.843 11.1199H122.449V5.89357H122.316ZM130.052 13.5219C130.85 12.7212 132.313 10.8531 132.313 8.42892C132.313 5.60445 131.249 3.86973 130.429 2.93565C128.966 1.33438 126.971 0.533762 124.688 0.533762H117.328C117.062 0.533762 116.929 0.800624 116.929 0.934064V27.0437C116.929 27.3106 117.195 27.444 117.328 27.444H125.109C127.503 27.444 129.764 26.5099 131.249 24.6195C132.047 23.552 133 21.7951 133 19.1263C132.734 15.9237 130.739 14.0334 130.052 13.5219ZM112.185 0.400329H107.53C107.264 0.400329 107.131 0.533751 107.131 0.80063V19.282C107.131 20.216 106.865 20.8832 106.466 21.417C106.067 21.9508 105.535 22.0842 104.87 22.0842C104.228 22.0842 103.674 21.8173 103.274 21.417C102.875 20.8832 102.609 20.216 102.609 19.282V0.80063C102.609 0.533751 102.343 0.400329 102.21 0.400329H97.5333C97.2673 0.400329 97.1343 0.533751 97.1343 0.80063V19.4154C97.1343 21.8173 97.6663 24.0858 99.1293 25.5759C100.592 27.0437 102.587 27.8443 104.87 27.8443C107.264 27.8443 109.282 27.0437 110.612 25.5759C112.075 24.108 112.607 21.973 112.607 19.4154V0.80063C112.74 0.667191 112.474 0.400329 112.185 0.400329Z" fill="#F63440"/>
</svg>
