<svg width="123" height="37" viewBox="0 0 123 37" fill="none" xmlns="http://www.w3.org/2000/svg">
<path fill-rule="evenodd" clip-rule="evenodd" d="M77.2002 11.31L75.2002 7.93001L71.6502 9.62001L69.6502 6.23001L66.1002 7.93001L64.1102 4.53001L60.5602 6.23001L58.5602 2.84001L55.0102 4.54001L53.0202 1.14001L49.4602 2.84001L41.9302 27.36L51.0802 30.16C51.4248 29.0548 52.1535 28.1094 53.1344 27.4945C54.1153 26.8797 55.2838 26.636 56.4287 26.8075C57.5736 26.979 58.6194 27.5544 59.3771 28.4296C60.1348 29.3049 60.5545 30.4223 60.5602 31.58V31.68C60.5802 32.12 60.5302 32.56 60.4002 33L69.7002 35.85L77.2002 11.31Z" fill="#D61920"/>
<path fill-rule="evenodd" clip-rule="evenodd" d="M49.78 25.34C49.5487 25.3017 49.3388 25.1818 49.1884 25.002C49.0379 24.8222 48.9569 24.5944 48.96 24.36V12.36C48.9587 12.2283 48.9837 12.0976 49.0334 11.9757C49.0832 11.8538 49.1568 11.743 49.25 11.6499C49.3431 11.5568 49.4539 11.4832 49.5758 11.4334C49.6977 11.3836 49.8284 11.3586 49.96 11.36H58.6301C59.1409 11.3587 59.647 11.458 60.1194 11.6523C60.5919 11.8465 61.0215 12.132 61.3836 12.4923C61.7458 12.8525 62.0334 13.2806 62.2301 13.7521C62.4268 14.2236 62.5287 14.7291 62.53 15.24V24.36C62.5298 24.5073 62.497 24.6527 62.434 24.7858C62.371 24.9189 62.2794 25.0365 62.1658 25.1301C62.0521 25.2237 61.9191 25.2911 61.7764 25.3274C61.6336 25.3637 61.4846 25.368 61.34 25.34C61.1106 25.2996 60.903 25.1788 60.7546 24.9992C60.6061 24.8196 60.5265 24.593 60.53 24.36V15.25C60.53 14.7461 60.3299 14.2628 59.9736 13.9065C59.6172 13.5502 59.134 13.35 58.6301 13.35H56.7401V24.35C56.7408 24.484 56.7147 24.6167 56.6631 24.7404C56.6116 24.8641 56.5357 24.9762 56.44 25.07C56.3262 25.1829 56.1866 25.2664 56.0333 25.3135C55.88 25.3605 55.7176 25.3696 55.5601 25.34C55.3287 25.3017 55.1188 25.1818 54.9684 25.002C54.8179 24.8222 54.7369 24.5944 54.7401 24.36V13.35H50.96V24.35C50.961 24.4971 50.9294 24.6426 50.8677 24.7761C50.8059 24.9096 50.7155 25.0279 50.6028 25.1224C50.4901 25.217 50.3579 25.2855 50.2157 25.3231C50.0735 25.3607 49.9247 25.3665 49.78 25.34ZM64.2001 30.57C63.967 30.5315 63.7557 30.4101 63.605 30.2282C63.4544 30.0463 63.3745 29.8161 63.3801 29.58C63.3812 29.3176 63.4853 29.0662 63.67 28.88C63.8547 28.6916 64.1063 28.5837 64.37 28.58C65.22 28.58 65.9501 28.04 66.1901 27.23L67.2201 23.8L63.85 12.53C63.8099 12.4039 63.7951 12.2712 63.8066 12.1394C63.818 12.0076 63.8556 11.8794 63.917 11.7622C63.9783 11.645 64.0624 11.5411 64.1642 11.4566C64.266 11.3722 64.3835 11.3087 64.51 11.27C64.7619 11.2002 65.031 11.2297 65.2618 11.3525C65.4925 11.4753 65.6673 11.682 65.75 11.93L68.25 20.33L70.7901 11.93C70.9101 11.47 71.4201 11.16 71.9401 11.26L72.0101 11.27C72.5501 11.44 72.8501 12.01 72.6901 12.54L69.2201 24.1L68.1201 27.8C67.8732 28.5962 67.3837 29.2955 66.7201 29.8C66.045 30.3063 65.2239 30.58 64.3801 30.58C64.3199 30.5823 64.2596 30.5789 64.2001 30.57Z" fill="#FEFEFE"/>
<path fill-rule="evenodd" clip-rule="evenodd" d="M3.0801 23.15H5.0401C5.56258 23.15 6.06365 22.9424 6.4331 22.573C6.80255 22.2035 7.0101 21.7025 7.0101 21.18V15.41C7.01142 15.1513 6.96176 14.8949 6.86398 14.6553C6.76619 14.4158 6.62218 14.1979 6.44018 14.0141C6.25817 13.8302 6.04174 13.684 5.80323 13.5838C5.56472 13.4836 5.3088 13.4313 5.0501 13.43H3.0801V23.13V23.15ZM1.8501 25.21C1.60999 25.1694 1.39231 25.0443 1.23641 24.8572C1.08052 24.6702 0.996698 24.4335 1.0001 24.19V6.26999C0.998332 6.13289 1.02396 5.99681 1.07547 5.86974C1.12699 5.74267 1.20336 5.62716 1.3001 5.52999C1.41715 5.40846 1.56226 5.31754 1.72268 5.26523C1.88309 5.21292 2.05391 5.20082 2.2201 5.22999C2.7201 5.32999 3.0801 5.74999 3.0801 6.25999V11.36H5.0401C5.57148 11.3587 6.0979 11.4622 6.58921 11.6646C7.08052 11.8671 7.52707 12.1645 7.90328 12.5397C8.27949 12.915 8.57797 13.3608 8.78162 13.8516C8.98527 14.3424 9.0901 14.8686 9.0901 15.4V21.17C9.08746 22.2407 8.66097 23.2667 7.90389 24.0238C7.14682 24.7809 6.12076 25.2074 5.0501 25.21H2.0401C1.97327 25.2139 1.9062 25.2106 1.8401 25.2L1.8501 25.21Z" fill="#333545"/>
<path fill-rule="evenodd" clip-rule="evenodd" d="M16.14 13.35C16.0277 13.3304 15.914 13.3204 15.8 13.32C15.5406 13.3174 15.2832 13.3665 15.043 13.4645C14.8028 13.5626 14.5845 13.7076 14.4011 13.8911C14.2176 14.0745 14.0726 14.2928 13.9745 14.533C13.8765 14.7732 13.8273 15.0306 13.83 15.29V21.3C13.8287 21.5591 13.8787 21.8159 13.9773 22.0555C14.0758 22.2951 14.2209 22.5128 14.4041 22.696C14.5873 22.8792 14.805 23.0242 15.0446 23.1228C15.2842 23.2213 15.5409 23.2714 15.8 23.27C16.3225 23.27 16.8236 23.0625 17.193 22.693C17.5625 22.3236 17.77 21.8225 17.77 21.3V15.3C17.77 14.33 17.08 13.52 16.14 13.35ZM15.09 25.3C14.1524 25.1351 13.3032 24.6443 12.6921 23.9144C12.0811 23.1844 11.7474 22.262 11.75 21.31V15.3C11.7483 14.7681 11.8526 14.2412 12.0569 13.7502C12.2613 13.2591 12.5615 12.8137 12.94 12.44C13.3155 12.0646 13.7615 11.7672 14.2523 11.5647C14.7431 11.3621 15.2691 11.2586 15.8 11.26C16.8715 11.26 17.8991 11.6857 18.6567 12.4433C19.4144 13.201 19.84 14.2286 19.84 15.3V21.31C19.84 22.39 19.42 23.41 18.65 24.18C18.2761 24.5547 17.8318 24.8518 17.3427 25.0543C16.8536 25.2568 16.3294 25.3607 15.8 25.36C15.562 25.361 15.3245 25.341 15.09 25.3ZM26.89 13.36C26.7778 13.3404 26.664 13.3303 26.55 13.33C26.2906 13.3274 26.0332 13.3765 25.793 13.4745C25.5528 13.5726 25.3345 13.7176 25.1511 13.9011C24.9676 14.0845 24.8226 14.3028 24.7245 14.543C24.6265 14.7832 24.5773 15.0406 24.58 15.3V21.31C24.5787 21.5691 24.6287 21.8259 24.7273 22.0655C24.8258 22.3051 24.9709 22.5228 25.1541 22.706C25.3373 22.8892 25.555 23.0342 25.7946 23.1328C26.0342 23.2313 26.2909 23.2814 26.55 23.28C26.8091 23.2814 27.0659 23.2313 27.3055 23.1328C27.5451 23.0342 27.7628 22.8892 27.946 22.706C28.1292 22.5228 28.2742 22.3051 28.3728 22.0655C28.4713 21.8259 28.5213 21.5691 28.52 21.31V15.3C28.52 14.34 27.83 13.53 26.89 13.36ZM25.84 25.3C24.9043 25.133 24.0574 24.6413 23.4483 23.9115C22.8392 23.1818 22.507 22.2606 22.51 21.31V15.3C22.5116 14.7107 22.6418 14.1288 22.8915 13.5949C23.1412 13.0611 23.5043 12.5882 23.9557 12.2092C24.407 11.8302 24.9357 11.5543 25.5046 11.4007C26.0736 11.2472 26.6693 11.2196 27.25 11.32C28.1878 11.4826 29.038 11.971 29.6509 12.6991C30.2637 13.4272 30.5999 14.3483 30.6 15.3V21.31C30.6012 21.8442 30.4957 22.3733 30.2897 22.8661C30.0836 23.359 29.7811 23.8057 29.4 24.18C29.0261 24.5547 28.5818 24.8518 28.0927 25.0543C27.6036 25.2568 27.0794 25.3607 26.55 25.36C26.31 25.36 26.07 25.34 25.84 25.3ZM34.11 25.34C33.8699 25.2995 33.6522 25.1743 33.4963 24.9873C33.3404 24.8002 33.2566 24.5635 33.26 24.32V6.27004C33.26 5.99004 33.36 5.72004 33.56 5.53004C33.678 5.41359 33.8223 5.32733 33.9807 5.27858C34.1392 5.22983 34.307 5.22004 34.47 5.25004C34.97 5.33004 35.34 5.76004 35.34 6.27004V16.95L40.12 11.59C40.36 11.33 40.72 11.21 41.08 11.27C41.2615 11.3004 41.4316 11.3789 41.5725 11.4972C41.7134 11.6156 41.8201 11.7696 41.8813 11.9431C41.9426 12.1167 41.9562 12.3034 41.9208 12.484C41.8854 12.6646 41.8023 12.8325 41.68 12.97L38.07 17L41.8 23.83C41.8672 23.9452 41.9106 24.0727 41.9278 24.2049C41.945 24.3372 41.9355 24.4715 41.9 24.6C41.8614 24.7325 41.7962 24.8558 41.7086 24.9623C41.6209 25.0689 41.5125 25.1566 41.39 25.22C41.1783 25.3418 40.9302 25.3843 40.69 25.34C40.5406 25.3148 40.3986 25.2569 40.2742 25.1705C40.1497 25.084 40.0459 24.9712 39.97 24.84L36.61 18.66L35.33 20.07V24.32C35.33 24.5959 35.2204 24.8604 35.0254 25.0554C34.8304 25.2505 34.5658 25.36 34.29 25.36C34.22 25.36 34.16 25.36 34.09 25.34H34.11ZM79.92 25.33C79.3577 25.2358 78.8234 25.0173 78.3563 24.6903C77.8892 24.3633 77.501 23.9362 77.22 23.44C77.0826 23.197 77.0467 22.9095 77.12 22.64C77.2 22.38 77.37 22.16 77.6 22.02C77.8136 21.9034 78.061 21.8645 78.3 21.91C78.6 21.96 78.87 22.14 79.02 22.41C79.29 22.87 79.72 23.17 80.25 23.26C80.5233 23.3075 80.8037 23.2926 81.0704 23.2164C81.3371 23.1402 81.5831 23.0047 81.79 22.82C82.19 22.45 82.39 21.92 82.34 21.4C82.3289 21.1335 82.2552 20.8733 82.1249 20.6405C81.9947 20.4077 81.8114 20.2089 81.59 20.06L78.79 18.07C78.3338 17.7497 77.9539 17.3327 77.6774 16.8487C77.4008 16.3647 77.2344 15.8257 77.19 15.27C77.1538 14.7094 77.2458 14.1479 77.4589 13.6281C77.672 13.1083 78.0007 12.6439 78.42 12.27C78.8291 11.8897 79.3178 11.6053 79.8506 11.4376C80.3834 11.2698 80.9468 11.2228 81.5 11.3C82.68 11.5 83.64 12.18 84.19 13.14C84.3225 13.3799 84.357 13.6618 84.2861 13.9266C84.2153 14.1914 84.0446 14.4184 83.81 14.56C83.5983 14.6818 83.3502 14.7243 83.11 14.68C82.9606 14.6548 82.8186 14.5969 82.6942 14.5105C82.5697 14.424 82.4659 14.3112 82.39 14.18C82.2646 13.9679 82.0937 13.7861 81.8897 13.6478C81.6857 13.5095 81.4536 13.418 81.21 13.38C80.9609 13.3349 80.7046 13.3485 80.4616 13.4197C80.2186 13.4908 79.9955 13.6176 79.81 13.79C79.6289 13.9609 79.4876 14.1696 79.396 14.4011C79.3044 14.6327 79.2648 14.8815 79.28 15.13C79.3 15.62 79.58 16.1 80 16.38L82.8 18.33C83.2753 18.6628 83.6684 19.0998 83.9491 19.6076C84.2299 20.1153 84.3909 20.6805 84.42 21.26C84.4663 21.8368 84.3775 22.4165 84.1605 22.9529C83.9435 23.4893 83.6043 23.9677 83.17 24.35C82.7476 24.7425 82.243 25.036 81.6929 25.209C81.1428 25.3819 80.5611 25.4301 79.99 25.35L79.91 25.33H79.92ZM87.95 25.36C87.7098 25.3178 87.4921 25.1926 87.3349 25.0061C87.1777 24.8197 87.091 24.5839 87.09 24.34V6.29004C87.0887 6.15309 87.1147 6.01725 87.1665 5.89047C87.2183 5.76369 87.2948 5.64851 87.3917 5.55167C87.4885 5.45483 87.6037 5.37827 87.7305 5.32648C87.8572 5.27469 87.9931 5.2487 88.13 5.25004L88.33 5.26004C88.83 5.36004 89.17 5.77004 89.17 6.29004V11.39H91.14C91.6709 11.3887 92.1969 11.4923 92.6876 11.6949C93.1784 11.8974 93.6243 12.195 93.9997 12.5704C94.3751 12.9458 94.6726 13.3917 94.8752 13.8824C95.0777 14.3732 95.1813 14.8991 95.18 15.43V24.33C95.1809 24.481 95.1485 24.6304 95.0853 24.7675C95.022 24.9046 94.9294 25.0261 94.8139 25.1234C94.6985 25.2207 94.563 25.2915 94.4172 25.3306C94.2714 25.3698 94.1187 25.3764 93.97 25.35C93.47 25.26 93.11 24.83 93.11 24.32V15.42C93.11 15.1618 93.059 14.9061 92.9599 14.6677C92.8608 14.4292 92.7155 14.2127 92.5324 14.0306C92.3494 13.8484 92.1321 13.7043 91.8932 13.6064C91.6542 13.5084 91.3983 13.4587 91.14 13.46H89.17V24.33C89.1712 24.482 89.1386 24.6324 89.0748 24.7704C89.0109 24.9083 88.9173 25.0304 88.8007 25.1279C88.6841 25.2254 88.5473 25.2959 88.4003 25.3343C88.2532 25.3727 88.0994 25.3781 87.95 25.35V25.36ZM102.23 13.37C101.947 13.3186 101.655 13.3302 101.377 13.4042C101.099 13.4781 100.84 13.6124 100.619 13.7976C100.399 13.9828 100.222 14.2144 100.101 14.4758C99.9801 14.7372 99.9183 15.022 99.92 15.31V21.32C99.9187 21.5783 99.9684 21.8342 100.066 22.0732C100.164 22.3121 100.308 22.5294 100.491 22.7124C100.673 22.8955 100.889 23.0408 101.128 23.1399C101.366 23.239 101.622 23.29 101.88 23.29C102.4 23.29 102.9 23.09 103.27 22.72C103.455 22.5372 103.602 22.3191 103.702 22.0787C103.801 21.8382 103.852 21.5803 103.85 21.32V15.3C103.85 14.34 103.17 13.52 102.22 13.36L102.23 13.37ZM101.17 25.29C100.235 25.1251 99.3884 24.6355 98.7792 23.9073C98.17 23.1792 97.8374 22.2594 97.84 21.31V15.3C97.8401 14.7098 97.9692 14.1268 98.2183 13.5917C98.4674 13.0567 98.8304 12.5825 99.2819 12.2024C99.7334 11.8224 100.263 11.5456 100.832 11.3914C101.402 11.2373 101.998 11.2095 102.58 11.31C103.519 11.4729 104.371 11.9627 104.984 12.6929C105.597 13.4231 105.932 14.3466 105.93 15.3V21.31C105.93 21.8426 105.825 22.37 105.619 22.8611C105.412 23.3522 105.11 23.7972 104.73 24.17C104.271 24.6306 103.708 24.9731 103.088 25.1682C102.468 25.3633 101.81 25.4051 101.17 25.29Z" fill="#333545"/>
<path fill-rule="evenodd" clip-rule="evenodd" d="M121.9 12.54C121.934 12.413 121.943 12.2805 121.926 12.1501C121.909 12.0197 121.866 11.8939 121.8 11.78C121.725 11.6587 121.626 11.5536 121.509 11.4712C121.392 11.3888 121.26 11.3306 121.12 11.3C120.862 11.2513 120.596 11.3028 120.374 11.444C120.153 11.5853 119.994 11.8056 119.93 12.06C119.93 12.11 118.81 16.62 117.93 20.05L117.91 20.12L117.89 20.05L115.89 12.07C115.852 11.8752 115.754 11.6969 115.611 11.5592C115.468 11.4215 115.286 11.3311 115.09 11.3C115.031 11.2883 114.971 11.2816 114.91 11.28C114.45 11.28 114.05 11.6 113.92 12.06C113.91 12.11 112.79 16.62 111.92 20.05L111.9 20.12L111.88 20.05C111.03 16.62 109.88 12.11 109.88 12.06C109.833 11.8686 109.731 11.695 109.588 11.5601C109.444 11.4252 109.264 11.3349 109.07 11.3C108.904 11.2706 108.732 11.283 108.572 11.3361C108.411 11.3893 108.267 11.4815 108.151 11.6044C108.035 11.7274 107.951 11.8773 107.907 12.0406C107.864 12.2039 107.861 12.3755 107.9 12.54L110.91 24.57C110.967 24.7905 111.095 24.9862 111.274 25.1271C111.452 25.268 111.672 25.3463 111.9 25.35C112.39 25.35 112.78 25.03 112.88 24.57L114.88 16.58L114.91 16.51L114.93 16.58C115.81 20.05 116.93 24.58 116.93 24.58C116.99 24.7962 117.117 24.9876 117.294 25.1262C117.47 25.2647 117.686 25.3432 117.91 25.35C118.141 25.3572 118.366 25.2829 118.547 25.1403C118.728 24.9976 118.853 24.7957 118.9 24.57L121.9 12.54Z" fill="#333545"/>
</svg>
