<svg width="169" height="41" viewBox="0 0 169 41" fill="none" xmlns="http://www.w3.org/2000/svg">
<path d="M40.5 20.5C40.5 9.4543 31.5457 0.5 20.5 0.5C9.4543 0.5 0.5 9.4543 0.5 20.5C0.5 31.5457 9.4543 40.5 20.5 40.5C31.5457 40.5 40.5 31.5457 40.5 20.5Z" fill="white"/>
<path d="M15.7043 15.2311L22.1694 25.7968L19.2046 31.1875L20.827 33.8498L25.2939 25.7276L17.2032 12.5058L15.7043 15.2311Z" fill="#1A1918"/>
<path d="M20.5908 15.3085L27.0559 25.8741L24.0911 31.2649L25.7134 33.9272L30.1803 25.805L22.0896 12.5832L20.5908 15.3085Z" fill="#1A1918"/>
<path d="M20.3089 25.7494L13.8788 15.1626L16.8614 9.78149L15.2478 7.11398L10.7542 15.2214L18.801 28.4698L20.3089 25.7494Z" fill="#1A1918"/>
<path d="M25.306 25.7436L18.6905 15.2712L21.5781 9.83905L19.9178 7.20023L15.5671 15.3846L23.8462 28.4897L25.306 25.7436Z" fill="#1A1918"/>
<path d="M53.254 18.764C52.1247 18.764 51.1273 18.5733 50.262 18.192C49.3967 17.796 48.7147 17.2387 48.216 16.52C47.7173 15.7867 47.4607 14.8993 47.446 13.858H50.416C50.4453 14.5767 50.702 15.1853 51.186 15.684C51.6847 16.168 52.3667 16.41 53.232 16.41C53.98 16.41 54.574 16.234 55.014 15.882C55.454 15.5153 55.674 15.0313 55.674 14.43C55.674 13.7993 55.476 13.308 55.08 12.956C54.6987 12.604 54.1853 12.318 53.54 12.098C52.8947 11.878 52.2053 11.6433 51.472 11.394C50.284 10.9833 49.3747 10.4553 48.744 9.81C48.128 9.16467 47.82 8.30667 47.82 7.236C47.8053 6.32667 48.018 5.54933 48.458 4.904C48.9127 4.244 49.5287 3.738 50.306 3.386C51.0833 3.01933 51.978 2.836 52.99 2.836C54.0167 2.836 54.9187 3.01933 55.696 3.386C56.488 3.75267 57.104 4.266 57.544 4.926C57.9987 5.586 58.2407 6.37067 58.27 7.28H55.256C55.2413 6.73733 55.0287 6.26067 54.618 5.85C54.222 5.42467 53.6647 5.212 52.946 5.212C52.33 5.19733 51.8093 5.35133 51.384 5.674C50.9733 5.982 50.768 6.43667 50.768 7.038C50.768 7.55133 50.9293 7.962 51.252 8.27C51.5747 8.56333 52.0147 8.81267 52.572 9.018C53.1293 9.22333 53.7673 9.44333 54.486 9.678C55.2487 9.942 55.9453 10.25 56.576 10.602C57.2067 10.954 57.7127 11.4233 58.094 12.01C58.4753 12.582 58.666 13.3227 58.666 14.232C58.666 15.0387 58.4607 15.7867 58.05 16.476C57.6393 17.1653 57.0307 17.7227 56.224 18.148C55.4173 18.5587 54.4273 18.764 53.254 18.764ZM65.149 18.764C63.785 18.764 62.729 18.3387 61.981 17.488C61.2476 16.6373 60.881 15.3907 60.881 13.748V7.588H63.675V13.484C63.675 14.4227 63.8656 15.1413 64.247 15.64C64.6283 16.1387 65.2296 16.388 66.051 16.388C66.8283 16.388 67.4663 16.1093 67.965 15.552C68.4783 14.9947 68.735 14.2173 68.735 13.22V7.588H71.551V18.5H69.065L68.845 16.652C68.5076 17.2973 68.0163 17.8107 67.371 18.192C66.7403 18.5733 65.9996 18.764 65.149 18.764ZM79.7877 18.764C78.6731 18.764 77.6904 18.522 76.8397 18.038C75.9891 17.554 75.3144 16.8793 74.8157 16.014C74.3317 15.1487 74.0897 14.1587 74.0897 13.044C74.0897 11.9293 74.3317 10.9393 74.8157 10.074C75.3144 9.20867 75.9891 8.534 76.8397 8.05C77.6904 7.566 78.6731 7.324 79.7877 7.324C81.1811 7.324 82.3544 7.69067 83.3077 8.424C84.2611 9.14267 84.8697 10.14 85.1337 11.416H82.1637C82.0171 10.888 81.7237 10.4773 81.2837 10.184C80.8584 9.876 80.3524 9.722 79.7657 9.722C78.9884 9.722 78.3284 10.0153 77.7857 10.602C77.2431 11.1887 76.9717 12.0027 76.9717 13.044C76.9717 14.0853 77.2431 14.8993 77.7857 15.486C78.3284 16.0727 78.9884 16.366 79.7657 16.366C80.3524 16.366 80.8584 16.2193 81.2837 15.926C81.7237 15.6327 82.0171 15.2147 82.1637 14.672H85.1337C84.8697 15.904 84.2611 16.894 83.3077 17.642C82.3544 18.39 81.1811 18.764 79.7877 18.764ZM92.9791 18.764C91.8645 18.764 90.8818 18.522 90.0311 18.038C89.1805 17.554 88.5058 16.8793 88.0071 16.014C87.5231 15.1487 87.2811 14.1587 87.2811 13.044C87.2811 11.9293 87.5231 10.9393 88.0071 10.074C88.5058 9.20867 89.1805 8.534 90.0311 8.05C90.8818 7.566 91.8645 7.324 92.9791 7.324C94.3725 7.324 95.5458 7.69067 96.4991 8.424C97.4525 9.14267 98.0611 10.14 98.3251 11.416H95.3551C95.2085 10.888 94.9151 10.4773 94.4751 10.184C94.0498 9.876 93.5438 9.722 92.9571 9.722C92.1798 9.722 91.5198 10.0153 90.9771 10.602C90.4345 11.1887 90.1631 12.0027 90.1631 13.044C90.1631 14.0853 90.4345 14.8993 90.9771 15.486C91.5198 16.0727 92.1798 16.366 92.9571 16.366C93.5438 16.366 94.0498 16.2193 94.4751 15.926C94.9151 15.6327 95.2085 15.2147 95.3551 14.672H98.3251C98.0611 15.904 97.4525 16.894 96.4991 17.642C95.5458 18.39 94.3725 18.764 92.9791 18.764ZM106.127 18.764C105.027 18.764 104.051 18.5293 103.201 18.06C102.35 17.5907 101.683 16.9307 101.199 16.08C100.715 15.2293 100.473 14.2467 100.473 13.132C100.473 12.0027 100.707 10.998 101.177 10.118C101.661 9.238 102.321 8.556 103.157 8.072C104.007 7.57333 105.005 7.324 106.149 7.324C107.219 7.324 108.165 7.55867 108.987 8.028C109.808 8.49733 110.446 9.14267 110.901 9.964C111.37 10.7707 111.605 11.6727 111.605 12.67C111.605 12.8313 111.597 13 111.583 13.176C111.583 13.352 111.575 13.5353 111.561 13.726H103.267C103.325 14.5767 103.619 15.244 104.147 15.728C104.689 16.212 105.342 16.454 106.105 16.454C106.677 16.454 107.153 16.3293 107.535 16.08C107.931 15.816 108.224 15.4787 108.415 15.068H111.275C111.069 15.7573 110.725 16.388 110.241 16.96C109.771 17.5173 109.185 17.9573 108.481 18.28C107.791 18.6027 107.007 18.764 106.127 18.764ZM106.149 9.612C105.459 9.612 104.851 9.81 104.323 10.206C103.795 10.5873 103.457 11.174 103.311 11.966H108.745C108.701 11.2473 108.437 10.6753 107.953 10.25C107.469 9.82467 106.867 9.612 106.149 9.612ZM118.483 18.764C117.515 18.764 116.664 18.61 115.931 18.302C115.198 17.9793 114.611 17.5393 114.171 16.982C113.731 16.4247 113.467 15.7793 113.379 15.046H116.217C116.305 15.4713 116.54 15.838 116.921 16.146C117.317 16.4393 117.823 16.586 118.439 16.586C119.055 16.586 119.502 16.4613 119.781 16.212C120.074 15.9627 120.221 15.6767 120.221 15.354C120.221 14.8847 120.016 14.5693 119.605 14.408C119.194 14.232 118.622 14.0633 117.889 13.902C117.42 13.7993 116.943 13.6747 116.459 13.528C115.975 13.3813 115.528 13.198 115.117 12.978C114.721 12.7433 114.398 12.45 114.149 12.098C113.9 11.7313 113.775 11.284 113.775 10.756C113.775 9.788 114.156 8.974 114.919 8.314C115.696 7.654 116.782 7.324 118.175 7.324C119.466 7.324 120.492 7.62467 121.255 8.226C122.032 8.82733 122.494 9.656 122.641 10.712H119.979C119.818 9.90533 119.209 9.502 118.153 9.502C117.625 9.502 117.214 9.60467 116.921 9.81C116.642 10.0153 116.503 10.272 116.503 10.58C116.503 10.9027 116.716 11.1593 117.141 11.35C117.566 11.5407 118.131 11.7167 118.835 11.878C119.598 12.054 120.294 12.252 120.925 12.472C121.57 12.6773 122.084 12.9927 122.465 13.418C122.846 13.8287 123.037 14.4227 123.037 15.2C123.052 15.8747 122.876 16.4833 122.509 17.026C122.142 17.5687 121.614 17.994 120.925 18.302C120.236 18.61 119.422 18.764 118.483 18.764ZM130.042 18.764C129.074 18.764 128.223 18.61 127.49 18.302C126.756 17.9793 126.17 17.5393 125.73 16.982C125.29 16.4247 125.026 15.7793 124.938 15.046H127.776C127.864 15.4713 128.098 15.838 128.48 16.146C128.876 16.4393 129.382 16.586 129.998 16.586C130.614 16.586 131.061 16.4613 131.34 16.212C131.633 15.9627 131.78 15.6767 131.78 15.354C131.78 14.8847 131.574 14.5693 131.164 14.408C130.753 14.232 130.181 14.0633 129.448 13.902C128.978 13.7993 128.502 13.6747 128.018 13.528C127.534 13.3813 127.086 13.198 126.676 12.978C126.28 12.7433 125.957 12.45 125.708 12.098C125.458 11.7313 125.334 11.284 125.334 10.756C125.334 9.788 125.715 8.974 126.478 8.314C127.255 7.654 128.34 7.324 129.734 7.324C131.024 7.324 132.051 7.62467 132.814 8.226C133.591 8.82733 134.053 9.656 134.2 10.712H131.538C131.376 9.90533 130.768 9.502 129.712 9.502C129.184 9.502 128.773 9.60467 128.48 9.81C128.201 10.0153 128.062 10.272 128.062 10.58C128.062 10.9027 128.274 11.1593 128.7 11.35C129.125 11.5407 129.69 11.7167 130.394 11.878C131.156 12.054 131.853 12.252 132.484 12.472C133.129 12.6773 133.642 12.9927 134.024 13.418C134.405 13.8287 134.596 14.4227 134.596 15.2C134.61 15.8747 134.434 16.4833 134.068 17.026C133.701 17.5687 133.173 17.994 132.484 18.302C131.794 18.61 130.98 18.764 130.042 18.764ZM137.596 18.5V9.942H136.1V7.588H137.596V6.312C137.596 4.992 137.926 4.05333 138.586 3.496C139.261 2.93867 140.17 2.66 141.314 2.66H142.524V5.058H141.754C141.27 5.058 140.925 5.15333 140.72 5.344C140.515 5.53467 140.412 5.85733 140.412 6.312V7.588H142.766V9.942H140.412V18.5H137.596ZM149.088 18.764C147.724 18.764 146.668 18.3387 145.92 17.488C145.187 16.6373 144.82 15.3907 144.82 13.748V7.588H147.614V13.484C147.614 14.4227 147.805 15.1413 148.186 15.64C148.568 16.1387 149.169 16.388 149.99 16.388C150.768 16.388 151.406 16.1093 151.904 15.552C152.418 14.9947 152.674 14.2173 152.674 13.22V7.588H155.49V18.5H153.004L152.784 16.652C152.447 17.2973 151.956 17.8107 151.31 18.192C150.68 18.5733 149.939 18.764 149.088 18.764ZM158.381 18.5V2.66H161.197V18.5H158.381ZM164.075 18.5V2.66H166.891V18.5H164.075ZM53.254 38.764C52.1247 38.764 51.1273 38.5733 50.262 38.192C49.3967 37.796 48.7147 37.2387 48.216 36.52C47.7173 35.7867 47.4607 34.8993 47.446 33.858H50.416C50.4453 34.5767 50.702 35.1853 51.186 35.684C51.6847 36.168 52.3667 36.41 53.232 36.41C53.98 36.41 54.574 36.234 55.014 35.882C55.454 35.5153 55.674 35.0313 55.674 34.43C55.674 33.7993 55.476 33.308 55.08 32.956C54.6987 32.604 54.1853 32.318 53.54 32.098C52.8947 31.878 52.2053 31.6433 51.472 31.394C50.284 30.9833 49.3747 30.4553 48.744 29.81C48.128 29.1647 47.82 28.3067 47.82 27.236C47.8053 26.3267 48.018 25.5493 48.458 24.904C48.9127 24.244 49.5287 23.738 50.306 23.386C51.0833 23.0193 51.978 22.836 52.99 22.836C54.0167 22.836 54.9187 23.0193 55.696 23.386C56.488 23.7527 57.104 24.266 57.544 24.926C57.9987 25.586 58.2407 26.3707 58.27 27.28H55.256C55.2413 26.7373 55.0287 26.2607 54.618 25.85C54.222 25.4247 53.6647 25.212 52.946 25.212C52.33 25.1973 51.8093 25.3513 51.384 25.674C50.9733 25.982 50.768 26.4367 50.768 27.038C50.768 27.5513 50.9293 27.962 51.252 28.27C51.5747 28.5633 52.0147 28.8127 52.572 29.018C53.1293 29.2233 53.7673 29.4433 54.486 29.678C55.2487 29.942 55.9453 30.25 56.576 30.602C57.2067 30.954 57.7127 31.4233 58.094 32.01C58.4753 32.582 58.666 33.3227 58.666 34.232C58.666 35.0387 58.4607 35.7867 58.05 36.476C57.6393 37.1653 57.0307 37.7227 56.224 38.148C55.4173 38.5587 54.4273 38.764 53.254 38.764ZM62.575 25.894C62.0616 25.894 61.6363 25.74 61.299 25.432C60.9763 25.124 60.815 24.7353 60.815 24.266C60.815 23.7967 60.9763 23.4153 61.299 23.122C61.6363 22.814 62.0616 22.66 62.575 22.66C63.0883 22.66 63.5063 22.814 63.829 23.122C64.1663 23.4153 64.335 23.7967 64.335 24.266C64.335 24.7353 64.1663 25.124 63.829 25.432C63.5063 25.74 63.0883 25.894 62.575 25.894ZM61.167 38.5V27.588H63.983V38.5H61.167ZM71.7842 38.5C70.6402 38.5 69.7235 38.2213 69.0342 37.664C68.3449 37.1067 68.0002 36.1167 68.0002 34.694V29.942H66.1302V27.588H68.0002L68.3302 24.662H70.8162V27.588H73.7642V29.942H70.8162V34.716C70.8162 35.244 70.9262 35.6107 71.1462 35.816C71.3809 36.0067 71.7769 36.102 72.3342 36.102H73.6982V38.5H71.7842ZM81.2047 38.764C80.1047 38.764 79.1293 38.5293 78.2787 38.06C77.428 37.5907 76.7607 36.9307 76.2767 36.08C75.7927 35.2293 75.5507 34.2467 75.5507 33.132C75.5507 32.0027 75.7853 30.998 76.2547 30.118C76.7387 29.238 77.3987 28.556 78.2347 28.072C79.0853 27.5733 80.0827 27.324 81.2267 27.324C82.2973 27.324 83.2433 27.5587 84.0647 28.028C84.886 28.4973 85.524 29.1427 85.9787 29.964C86.448 30.7707 86.6827 31.6727 86.6827 32.67C86.6827 32.8313 86.6753 33 86.6607 33.176C86.6607 33.352 86.6533 33.5353 86.6387 33.726H78.3447C78.4033 34.5767 78.6967 35.244 79.2247 35.728C79.7673 36.212 80.42 36.454 81.1827 36.454C81.7547 36.454 82.2313 36.3293 82.6127 36.08C83.0087 35.816 83.302 35.4787 83.4927 35.068H86.3527C86.1473 35.7573 85.8027 36.388 85.3187 36.96C84.8493 37.5173 84.2627 37.9573 83.5587 38.28C82.8693 38.6027 82.0847 38.764 81.2047 38.764ZM81.2267 29.612C80.5373 29.612 79.9287 29.81 79.4007 30.206C78.8727 30.5873 78.5353 31.174 78.3887 31.966H83.8227C83.7787 31.2473 83.5147 30.6753 83.0307 30.25C82.5467 29.8247 81.9453 29.612 81.2267 29.612ZM93.5611 38.764C92.5931 38.764 91.7424 38.61 91.0091 38.302C90.2758 37.9793 89.6891 37.5393 89.2491 36.982C88.8091 36.4247 88.5451 35.7793 88.4571 35.046H91.2951C91.3831 35.4713 91.6178 35.838 91.9991 36.146C92.3951 36.4393 92.9011 36.586 93.5171 36.586C94.1331 36.586 94.5804 36.4613 94.8591 36.212C95.1524 35.9627 95.2991 35.6767 95.2991 35.354C95.2991 34.8847 95.0938 34.5693 94.6831 34.408C94.2724 34.232 93.7004 34.0633 92.9671 33.902C92.4978 33.7993 92.0211 33.6747 91.5371 33.528C91.0531 33.3813 90.6058 33.198 90.1951 32.978C89.7991 32.7433 89.4764 32.45 89.2271 32.098C88.9778 31.7313 88.8531 31.284 88.8531 30.756C88.8531 29.788 89.2344 28.974 89.9971 28.314C90.7744 27.654 91.8598 27.324 93.2531 27.324C94.5438 27.324 95.5704 27.6247 96.3331 28.226C97.1104 28.8273 97.5724 29.656 97.7191 30.712H95.0571C94.8958 29.9053 94.2871 29.502 93.2311 29.502C92.7031 29.502 92.2924 29.6047 91.9991 29.81C91.7204 30.0153 91.5811 30.272 91.5811 30.58C91.5811 30.9027 91.7938 31.1593 92.2191 31.35C92.6444 31.5407 93.2091 31.7167 93.9131 31.878C94.6758 32.054 95.3724 32.252 96.0031 32.472C96.6484 32.6773 97.1618 32.9927 97.5431 33.418C97.9244 33.8287 98.1151 34.4227 98.1151 35.2C98.1298 35.8747 97.9538 36.4833 97.5871 37.026C97.2204 37.5687 96.6924 37.994 96.0031 38.302C95.3138 38.61 94.4998 38.764 93.5611 38.764Z" fill="white"/>
</svg>
